<?xml version="1.0" encoding="UTF-8"?>
<svg id="Layer_1" data-name="Layer 1" xmlns="http://www.w3.org/2000/svg" viewBox="0 0 1289 1244">
  <defs>
    <style>
      .cls-1 {
        fill: #fff;
        stroke-width: 4px;
      }

      .cls-1, .cls-2 {
        stroke: #fff;
        stroke-miterlimit: 10;
      }

      .cls-2 {
        fill: #226a48;
        stroke-width: 9px;
      }
    </style>
  </defs>
  <rect class="cls-2" x="4.5" y="4.5" width="1280" height="1235"/>
  <g>
    <path class="cls-1" d="m761.42,78.79c-9.43,3.35-17.07,8.49-28.82,19.38-7.55,6.95-8.75,7.55-14.58,7.12-4.2-.26-4.29-.43-6-9.52-1.89-10.12-7.98-12.95-16.81-7.89-10.81,6.26-12.95,7.2-17.84,7.72-2.83.34-6.26,1.2-7.72,1.97-3.43,1.72-23.33,21.27-29.59,29.08-5.23,6.43-14.32,22.73-18.96,33.79-1.46,3.52-4.29,11.32-6.43,17.41-4.2,12.27-4.8,13.38-7.63,13.38-2.57,0-3.95-3.52-6.86-17.24-4.63-22.21-8.58-34.14-17.33-51.98-4.63-9.43-9.09-15.7-12.44-17.5-.94-.51-4.29-1.29-7.46-1.72-3.09-.43-8.49-1.8-11.92-3q-6.18-2.32-10.29-.77c-2.74,1.03-5.83,3.35-9.61,7.29-3.09,3.17-8.23,7.72-11.49,10.21-3.26,2.4-6.86,5.66-7.98,7.2-2.74,3.6-7.12,12.27-10.12,20.16l-2.4,6.26-6.52-.69c-3.6-.43-9.01-.69-12.01-.69-5.23,0-5.58.17-8.06,3-1.37,1.72-4.37,6.52-6.6,10.72-2.74,5.23-4.89,8.23-6.78,9.43-4.8,3-11.41,8.49-13.9,11.58-1.46,1.8-3.17,5.75-4.29,9.86-2.83,10.64-3.26,39.97-.86,70.33.94,12.69,2.14,29.16,2.66,36.45,3.17,44.69,15.44,85.86,36.37,121.37,8.75,14.92,9.95,19.47,5.15,20.67-3.09.77-7.29-2.14-10.21-7.2-5.66-9.86-11.66-18.7-22.56-33.19-13.21-17.41-23.42-28.82-43.14-48.03-24.1-23.5-39.11-36.28-51.03-43.31-4.03-2.4-11.41-7.12-16.47-10.55-10.98-7.46-23.24-13.55-38.17-18.96-13.47-4.89-20.07-6.52-26.67-6.52-4.8,0-5.15.17-8.58,3.77-1.89,2.06-4.46,4.89-5.66,6.26-1.89,2.23-2.92,2.66-8.15,3.09-7.55.69-9.35,2.06-13.29,9.69-2.74,5.49-3,6.52-3,13.64v7.72l-4.55,2.4c-5.92,3.17-6.86,5.23-5.32,11.15.69,2.49,1.29,7.89,1.29,12.18.09,6.86.43,8.32,2.92,13.47,2.92,6.09,3.17,9.52.77,9.95-.77.17-4.63-1.2-8.58-2.92-6.35-2.92-7.89-3.26-14.15-3.26-6.6-.09-7.2.09-9.43,2.32-2.23,2.14-2.4,3-2.83,10.72-.43,8.15-.6,8.66-4.12,13.98l-3.6,5.58v8.41c0,4.89.6,10.64,1.37,13.72,1.72,6.52,6.6,17.15,12.52,26.93,4.8,7.98,24.1,32.51,33.79,42.97,8.83,9.52,22.47,20.93,34.57,28.82,12.61,8.23,15.44,10.89,13.81,12.87-1.46,1.8-3.95,1.63-19.21-1.29-17.33-3.26-34.57-5.06-55.84-5.75-21.36-.6-31.31.34-55.67,5.32-27.28,5.58-27.28,5.49-34.05,12.35-3.52,3.52-6,6.78-6.35,8.32-.86,4.03-2.83,7.89-6.43,12.69-4.37,5.75-4.97,8.66-3,15.27,1.54,4.97,1.54,5.23,0,9.09-3.17,8.15-3,8.92,3.35,14.84,8.06,7.63,7.63,10.98-1.63,13.12-6.35,1.54-8.06,5.23-5.06,10.89,1.2,2.4,1.2,3-.6,8.66-1.89,6.18-1.89,9.43.09,16.21,1.37,4.89,4.12,7.63,10.12,10.29l5.49,2.49-.6,5.49c-.43,4.29-.26,6.09.86,8.15,1.89,3.77,8.41,8.58,18.18,13.64,19.47,9.95,36.37,12.78,88.6,14.84,26.67,1.03,30.62.86,40.74-2.06,5.06-1.46,9.61-.69,11.84,2.06,1.97,2.49,1.89,3.09-1.37,6.35-2.06,2.06-4.12,3.09-7.89,3.86-2.83.6-8.83,2.14-13.29,3.52-4.46,1.29-9.95,2.83-12.18,3.26-2.23.51-5.92,2.06-8.15,3.43-2.32,1.29-8.06,3.86-12.78,5.58-17.41,6.52-38.77,18.78-56.18,32.34-6.78,5.23-13.72,10.21-15.44,11.15-4.37,2.23-21.61,18.01-27.45,25.3-6.95,8.49-14.5,20.41-15.95,25.05-1.54,5.15-.86,8.58,3,15.78q3.09,5.66,2.06,10.72c-2.4,11.75-1.03,15.7,6.95,19.73,2.74,1.37,7.63,5.49,13.04,10.98,14.84,15.1,16.81,15.35,39.63,4.2,7.2-3.52,14.24-6.6,15.7-6.86,5.75-1.2,3.86,3.6-8.66,22.56-12.35,18.7-15.7,26.33-15.7,35.85.09,6.78,1.2,10.21,8.15,25.65,5.15,11.24,5.58,11.66,13.04,11.66,7.03,0,10.81,1.37,12.09,4.46,1.72,3.86.26,8.49-4.2,14.07-4.97,6-4.97,7.98,0,15.18,3.43,5.06,4.55,7.89,6,15.35.26,1.29,1.37,3.43,2.49,4.72l2.06,2.4,14.07.43,13.98.43,5.15,3.17c4.37,2.74,5.92,3.26,10.04,3.26,5.32,0,14.32-2.49,20.84-5.75,4.55-2.32,21.53-13.9,27.53-18.78,1.89-1.54,10.81-9.43,19.64-17.5,8.92-8.06,16.55-14.5,17.07-14.32s.94,2.4.86,4.97c-.09,3.43-1.37,7.98-5.32,17.93-5.83,15.18-9.18,25.3-10.98,33.71-2.23,10.81-1.12,44.94,1.8,55.15,1.89,6.69,9.18,12.09,21.7,16.13,2.49.86,6.43,2.83,8.75,4.46l4.29,3,10.55-.17c9.09-.17,10.98.09,14.58,1.63,11.58,5.15,19.81.26,27.45-16.3,5.32-11.49,9.26-10.98,11.32,1.46,1.63,9.61,7.03,20.76,12.44,25.56,5.49,4.97,12.35,6.69,30.45,7.55,8.49.43,17.41,1.03,19.81,1.29,6,.69,10.04-1.12,12.18-5.4.94-1.8,3.52-8.06,5.75-13.98,2.32-5.92,6.52-16.9,9.52-24.44,7.03-18.18,10.72-32.85,19.21-77.02,1.89-9.95,3.52-13.47,6.09-13.47,2.4,0,3.17,2.83,4.72,16.21.69,6.43,1.8,16.55,2.49,22.47,1.54,13.21,4.03,22.9,10.29,40.06,2.57,7.2,6.09,18.44,7.72,24.79,4.72,18.1,7.63,23.5,14.5,26.76,4.72,2.14,8.32,2.23,15.44.43,3-.86,8.66-1.37,13.38-1.37s9.26-.51,10.89-1.12c1.54-.69,4.63-3.6,7.12-6.78,2.49-3.09,4.72-5.66,5.15-5.66.34,0,2.49.77,4.72,1.8,5.49,2.4,8.66,1.72,14.15-3.26,5.4-4.8,8.66-9.52,11.41-16.3,4.03-9.86,10.55-37.91,13.04-56.09.77-5.4,1.97-13.47,2.66-17.93,1.89-12.01,2.49-72.48,1.12-115.79-1.46-48.8-1.54-46.66.34-47,3.69-.77,8.41,6.43,10.38,15.78,2.32,11.24,15.52,38.68,26.5,54.98,2.49,3.86,5.32,8.83,6.18,11.06,1.8,5.06,5.83,11.15,13.98,21.27,3.35,4.2,7.72,10.72,9.69,14.5,1.97,3.86,5.4,8.75,7.55,10.89s5.23,6.35,6.86,9.35c9.01,16.9,48.89,60.38,68.79,74.79,10.12,7.38,15.7,10.81,33.79,20.41,1.89,1.03,7.03,3.43,11.41,5.32,13.38,5.83,19.21,4.55,20.41-4.63.69-4.63-1.03-7.46-4.46-7.46-4.03,0-15.61-4.37-23.5-8.92-19.64-11.24-44.17-32.08-63.64-53.95-7.12-8.06-36.2-46.83-45.54-60.64-3.69-5.4-9.95-14.67-13.98-20.59-14.32-21.1-43.57-69.9-51.55-86.2-4.55-9.26-4.72-12.69-.69-13.12,3.52-.34,4.97,1.37,12.44,14.84,10.64,18.96,29.08,43.74,45.97,61.67,6.18,6.69,13.47,14.84,16.04,18.1,3.26,4.2,8.83,9.35,18.27,16.73,7.38,5.92,14.15,11.32,14.92,12.09,1.03.94,1.63,3.52,1.97,9.18.86,11.75,4.12,18.96,15.52,34.05,19.47,25.73,38.17,44.17,60.55,59.53,4.03,2.83,10.04,7.72,13.29,11.06,5.49,5.4,6.52,6.09,11.06,7.03,5.49,1.12,10.21.77,12.27-1.03,2.4-1.97,3.77-6.69,5.06-17.67.69-5.92,1.72-11.32,2.23-11.92,1.2-1.54,6.43-1.37,13.12.26,7.29,1.8,10.21,1.2,16.3-3.77,9.95-7.98,11.15-14.67,6-33.37-5.4-20.07-12.35-39.03-37.48-102.75-11.15-28.3-17.67-39.03-38.25-63.04-7.38-8.66-10.12-13.38-8.75-15.01.6-.69,1.8-1.29,2.66-1.29,2.74,0,13.72,6.26,26.07,14.92,15.52,10.89,18.7,12.44,52.49,26.33,34.57,14.15,70.25,31.99,85.6,42.71,8.41,5.92,11.92,7.89,14.84,8.32,5.06.77,18.53-.26,28.48-2.23,4.46-.86,10.89-1.8,14.15-2.14,8.15-.86,11.84-2.49,15.87-7.03,4.63-5.32,4.89-7.2,1.63-15.27-3.17-7.89-3-9.52,1.54-16.98,3-4.72,3.26-5.83,3.6-12.27.34-8.32-.86-12.61-5.92-21.27-4.46-7.63-5.66-11.66-4.29-14.24.94-1.72,1.46-1.89,5.49-1.37,2.4.34,7.63.77,11.66,1.03,6.18.43,7.72.26,10.29-1.2,4.03-2.23,5.92-5.66,6.52-12.27.34-3,1.72-9.01,3.17-13.21,1.89-5.92,2.4-8.75,2.06-12.01-.94-9.01-11.84-33.88-18.96-43.23-1.97-2.66-5.06-7.12-6.78-9.95-4.03-6.78-15.87-20.76-23.93-28.48-12.09-11.41-33.54-24.02-55.67-32.76-11.84-4.72-15.44-8.06-11.24-10.29,4.55-2.4,75.31-3.6,94.95-1.54,25.65,2.66,28.22,1.72,44-16.38,3.26-3.77,7.12-7.03,9.43-8.23,6.35-3.26,7.38-4.89,7.72-12.18.34-5.83.09-6.86-2.74-12.87-1.72-3.6-3.09-6.86-3.09-7.38,0-.43.94-2.23,2.14-3.95,6.69-9.78-3.35-23.07-26.16-34.48-8.15-4.12-12.87-7.55-12.87-9.43s1.54-2.83,7.72-4.29c6.78-1.54,29.08-9.43,30.36-10.72.6-.69,1.37-3.77,1.63-6.95.69-6.69,1.29-7.55,9.69-13.29,10.55-7.12,14.58-13.47,12.44-19.64-.94-2.74-9.86-15.78-13.72-19.98-1.2-1.37-3.95-3.35-6.09-4.46s-6.52-4.12-9.86-6.78c-6.86-5.49-21.44-13.29-29.59-15.78-3.09-.94-9.43-2.32-14.15-3.09-4.72-.69-12.44-2.57-17.15-4.12l-8.58-2.83-24.79-.09c-20.16-.17-24.96-.43-25.9-1.37-1.12-1.03-1.03-1.54.43-3.43,3.17-4.03,26.16-14.15,65.7-28.91,14.15-5.32,30.96-12.18,37.22-15.27,9.95-4.8,12.35-6.35,17.41-11.41,6.6-6.6,10.89-14.58,12.78-23.67,1.29-6.43.69-8.41-5.32-15.95-5.83-7.2-7.38-9.95-9.78-17.07-1.2-3.43-2.83-6.95-3.6-7.89-2.66-2.92-21.53-11.84-28.05-13.21-4.8-1.03-13.21-1.37-40.83-1.46-30.02-.09-35.6.09-40.74,1.37-7.63,1.8-20.93,6-26.85,8.32-5.4,2.14-9.86,2.32-11.75.43-1.2-1.29-1.12-1.72.94-5.4,1.29-2.14,6.09-8.83,10.72-14.75,11.15-14.41,15.01-20.5,16.21-25.9.6-2.4,2.57-9.78,4.37-16.21,6-21.44,6.26-28.22,1.2-35.68-2.57-3.86-2.66-5.23-.34-11.75,3.43-9.69.6-16.47-7.72-18.36-2.4-.6-11.32-.77-22.82-.6-16.55.26-19.98.6-27.96,2.49-13.47,3.26-20.93,6.09-25.47,9.69-2.23,1.8-13.9,12.95-25.9,24.87-12.09,11.84-22.73,21.96-23.76,22.56-1.54.77-2.06.69-2.66-.43-1.2-2.14.17-6.78,5.49-18.44,10.04-22.21,20.24-57.21,20.41-70.25.09-7.12,0-7.46-3.35-12.87l-3.43-5.58v-10.29c0-9.26-.26-10.64-1.97-13.47-4.03-6.52-12.61-6.35-26.33.6-8.58,4.37-10.55,4.63-15.95,2.14-6-2.66-9.35-2.32-14.41,1.72-12.78,10.12-59.1,56.87-68.87,69.56-2.06,2.66-6.43,9.95-9.61,16.3-6.78,13.29-9.35,17.07-11.66,17.07s-3.6-2.83-3-6.26c.26-1.46,1.37-8.15,2.57-14.75,1.12-6.6,2.92-18.36,3.86-26.16,3.35-26.67,6.95-46.49,12.01-67.24,4.37-17.41,4.46-23.42.51-26.85-1.97-1.72-3.26-1.97-8.66-1.97s-6.52-.26-7.63-1.89c-.77-1.03-1.37-2.92-1.37-4.2,0-9.01-7.03-12.44-17.58-8.58Zm1.97,16.55c1.72,1.72,1.2,4.89-1.97,11.84-3.35,7.46-3.6,9.09-1.63,11.84,2.23,3.17,5.06,2.4,11.75-3.35,6.78-5.83,9.61-7.29,11.41-5.83,1.97,1.63,1.37,4.55-3,16.04-6.86,17.75-7.72,22.13-10.81,54.21-1.2,12.52-2.92,29.51-3.86,37.74-.86,8.23-2.06,19.64-2.49,25.3-.94,10.72-1.2,11.92-9.01,38.94-2.66,9.09-5.83,21.44-7.03,27.45-2.74,13.72-2.06,11.66-14.67,45.54-15.7,41.94-16.13,42.89-34.74,72.13-14.84,23.33-18.1,30.28-20.76,44.43q-2.06,10.64-9.43,10.21c-8.49-.6-13.04-2.66-15.1-6.78-2.32-4.46-2.14-7.12.94-13.64,2.4-5.15,2.57-5.92,1.97-11.84-.51-6-.43-6.6,2.57-12.95,1.89-4.03,3.77-10.04,4.72-15.18.94-4.63,3.43-14.32,5.58-21.36,5.58-18.7,14.15-54.12,15.18-62.78.43-4.12,2.92-15.78,5.4-25.99,2.57-10.12,5.49-23.67,6.52-30.02,1.03-6.35,3.35-20.84,5.15-32.16,1.8-11.32,3.52-24.27,3.86-28.73.26-4.46.86-10.64,1.37-13.72,2.06-12.78,8.06-38.85,11.24-48.89,1.8-5.92,3.86-14.67,4.55-19.56,1.46-10.64,2.92-13.55,8.66-16.64,4.29-2.32,7.2-5.15,18.53-17.93,7.12-8.15,12.44-10.98,15.1-8.32Zm-68.79,10.64c1.03,4.03-.34,10.46-6.09,28.39-6.43,19.98-11.75,34.22-18.87,50.35-6.95,15.95-6.6,20.67,1.72,20.07,4.37-.34,5.32-2.06,9.86-17.67,1.97-6.78,4.72-14.67,6.09-17.58,2.14-4.8,6.09-16.73,12.35-37.57,2.57-8.75,6.35-14.5,9.35-14.5,1.12,0,2.32.6,2.57,1.37.86,2.23-1.97,13.64-6.86,27.62-7.12,20.07-8.75,25.99-11.15,39.2-1.2,6.6-2.83,15.27-3.77,19.3-.86,4.03-1.89,9.61-2.14,12.44-2.06,18.53-11.84,76.85-14.58,86.72-1.2,4.2-3.52,14.07-5.15,21.87-1.54,7.81-3.95,18.27-5.15,23.16-1.29,4.89-3,14.5-3.95,21.27-1.72,13.04-2.92,15.87-6.26,15.35-2.83-.43-5.4-6.6-6.09-14.24-.34-3.6-1.29-10.64-2.14-15.61s-2.06-12.69-2.57-17.15c-1.63-13.72-3.35-23.16-6.35-34.31-1.54-5.92-3.35-13.21-3.86-16.3-.6-3.09-4.37-17.75-8.49-32.59-7.03-25.47-7.46-27.53-7.46-35.6s.09-8.83,3.6-16.3c1.97-4.29,4.03-9.43,4.55-11.58,1.29-4.72,7.2-16.47,9.43-18.44,2.32-2.14,3.69-.86,3.09,2.92-.26,1.72-2.23,8.66-4.46,15.52-6.35,20.16-7.89,30.11-4.97,32.94,1.8,1.89,2.49,1.72,4.55-.86,1.97-2.49,2.74-4.55,8.66-23.07,5.58-17.5,13.81-38.25,16.73-42.03,1.2-1.63,6.69-11.58,12.18-22.04,5.49-10.55,11.15-20.84,12.52-22.99,6.26-9.43,11.92-12.95,13.12-8.06Zm-148.9,11.49c2.57,1.37,3.95,7.89,7.29,34.65,1.72,13.64,4.2,30.28,5.58,36.97s3.26,17.75,4.2,24.53c3.17,22.39,14.58,88.6,16.04,92.8,1.37,4.2,4.63,7.46,7.2,7.46.86,0,2.4-.77,3.52-1.63,1.8-1.46,2.06-2.4,1.97-7.12,0-2.92-1.29-12.35-2.74-20.84-1.54-8.49-5.06-29.16-7.89-45.89s-6.35-36.02-7.72-42.89c-1.46-6.86-4.12-20.24-6-29.76-1.89-9.61-4.97-22.82-6.86-29.51-4.03-13.9-4.12-16.47-.69-16.9,1.29-.17,3.09.17,4.12.69,3.26,1.72,10.38,18.01,16.73,38.17,2.23,7.03,6.26,19.9,9.09,28.48,5.49,16.98,10.72,41.08,13.64,62.18,2.23,16.47,3.69,24.44,7.29,40.14,1.54,6.86,4.63,21.7,6.86,32.94,2.14,11.24,4.89,23.42,6.09,26.93,4.2,12.35,9.18,53.09,9.26,75.65l.09,15.87-3.6,7.81c-2.06,4.29-3.69,8.15-3.69,8.66s.86,2.74,1.8,4.97c4.03,9.09-.94,19.3-9.35,19.3-3,0-4.29-1.29-4.97-5.23-.86-4.46-2.83-7.29-6.69-9.43-5.92-3.35-20.33-18.36-27.28-28.65-9.18-13.47-19.9-31.74-24.7-41.86-4.12-8.83-13.04-32.68-17.84-47.77-1.37-4.46-5.49-17.07-9.01-27.88-3.52-10.89-7.2-24.02-8.23-29.16-3.17-16.64-8.58-54.47-9.61-67.76-1.46-18.18-1.46-50.69,0-59.18,2.23-13.47,6.52-23.59,10.64-25.3,1.03-.43,3.52-1.2,5.58-1.72,3.17-.77,3.95-1.54,6-5.23,5.32-9.95,7.55-13.21,9.61-14.24,2.57-1.29,2.32-1.29,4.29-.26Zm111.5,13.29c2.32,2.83-4.55,19.21-9.69,23.07-2.14,1.63-2.4,1.63-3.77.26-1.29-1.2-1.29-1.97-.26-6.35,1.29-6.09,4.12-11.84,7.55-15.52,2.83-3,4.55-3.43,6.18-1.46Zm254.74,10.64c1.37,2.66,1.03,9.69-.77,13.21-.86,1.72-4.46,6.69-8.06,11.06-7.29,9.01-11.58,16.21-15.35,25.56-8.92,22.56-33.71,73.08-47.95,97.78-12.09,21.01-15.35,27.79-15.35,31.91,0,5.66,4.63,7.72,8.92,3.86,1.89-1.54,18.61-28.56,29.42-47.35,9.86-16.98,32.34-64.84,36.28-77.19,4.03-12.61,15.1-30.45,18.87-30.45,3,0,3.95,3.52,2.74,10.55-1.12,6.35-17.07,55.24-25.56,78.22-7.72,20.93-27.28,59.18-42.54,83.2-3.43,5.4-8.06,12.78-10.38,16.47-6.18,10.21-27.19,38.85-39.11,53.35-17.33,21.27-24.02,28.65-47.09,51.38l-21.96,21.7-.6,9.18c-.34,5.06-.6,9.26-.69,9.35-.09.17-1.54.26-3.35.26-2.4,0-3.86-.6-5.4-2.23-1.8-1.97-2.06-3.09-2.23-9.69-.09-6-.51-8.23-1.97-10.64-2.66-4.46-4.12-10.72-5.23-22.47-.94-10.12-.94-10.46,1.37-17.15,2.32-6.95,12.52-28.39,18.01-37.74,6.09-10.55,24.02-62.87,31.39-91.78,9.35-36.88,14.15-47.35,36.62-80.63,10.72-15.95,13.04-18.78,27.7-34.91,12.44-13.55,17.07-19.04,19.56-23.16,3.69-6.18,17.75-17.58,19.56-15.87.34.34.09,2.83-.51,5.58-.6,2.66-1.29,6.35-1.54,8.06l-.51,3.26h3.17c4.37,0,7.98-3.6,8.75-8.66.77-4.89,4.03-8.06,9.43-9.43,3.43-.86,5.58-2.4,12.09-8.66,8.15-7.72,10.64-8.92,12.27-5.92Zm-426.03,28.13c2.49,1.46,6.43,5.15,7.38,6.95.6,1.2.77,4.29.43,8.92-1.03,13.98,3.52,75.74,6.52,87.32.34,1.63.94,5.92,1.29,9.43.94,10.21,4.97,25.82,13.72,52.66,4.46,13.72,9.43,29.59,11.24,35.25,1.72,5.66,4.46,13.72,6.09,18.01,4.12,10.38,15.52,33.28,24.27,48.46,9.52,16.47,11.66,21.44,13.29,29.59.86,4.2,2.74,9.61,4.89,13.9,3.43,6.78,3.52,7.03,2.14,9.18-2.06,3.09-5.15,4.89-9.78,5.75-6.26,1.2-9.26,4.8-11.32,13.21-1.97,8.15-4.97,10.21-9.09,6-1.63-1.54-2.14-3-2.14-5.92,0-4.46.86-6.78,5.32-13.72,5.58-8.66,4.63-10.81-7.89-18.1-8.92-5.32-25.22-21.01-31.48-30.45-9.43-14.32-21.36-35.17-25.22-44.09-2.23-5.23-5.4-12.61-7.2-16.38-1.72-3.77-4.12-10.29-5.32-14.58-1.2-4.2-3.43-12.01-4.97-17.15-1.54-5.23-3.09-11.75-3.35-14.58-.34-2.83-.94-6.35-1.37-7.72-4.03-13.04-12.52-108.16-10.64-119.14,1.37-8.58,6.78-19.21,8.75-17.33.34.34.69,4.8.86,9.78,1.46,60.73,5.49,89.89,17.67,129.26,2.06,6.6,5.49,18.27,7.63,25.9,7.98,28.22,14.41,38,20.33,30.45,2.57-3.26,2.06-6.52-4.2-26.76-8.06-26.33-16.98-57.04-19.38-66.99-1.2-4.97-3.86-19.38-6-31.99-3.69-21.96-3.86-23.67-3.86-40.57,0-9.69-.43-21.1-1.03-25.22-1.54-11.66.77-26.16,4.89-30.19,1.29-1.37,4.46-.94,7.55.86Zm542.33,44.69c1.97,1.29,2.83,4.2,2.06,6.95-1.37,4.97-9.09,19.21-17.93,33.37-8.15,12.95-11.92,19.98-13.29,24.7-.43,1.37,0,2.32,1.72,3.69,5.06,4.03,9.43,1.12,15.18-10.04,5.49-10.64,8.83-14.92,11.15-14.58,6.09.86-.69,21.87-12.27,38-2.66,3.77-8.32,12.44-12.44,19.3-10.12,16.73-14.15,22.56-25.05,36.54-5.15,6.6-12.87,16.55-17.15,22.21-18.7,24.53-62.53,66.73-84.91,81.74-24.87,16.73-63.13,36.8-90.66,47.77-12.35,4.8-16.21,5.49-18.61,3.35-1.03-.86-2.32-2.66-3-3.95-2.4-4.55-1.54-7.89,5.32-21.1,5.58-10.64,7.63-13.72,13.12-19.47,7.55-7.81,11.32-12.18,28.05-32.59,18.01-22.04,19.38-23.84,37.22-50.52,22.13-33.19,26.07-39.8,37.57-61.84,14.07-27.28,17.67-31.91,36.2-46.57,13.72-10.89,20.41-16.73,34.65-30.02,16.21-15.1,26.25-21.96,37.48-25.47,4.8-1.54,7.63-1.37,7.63.43,0,3.86-50.26,51.81-81.65,77.79-12.52,10.38-15.27,13.72-15.27,18.44,0,3.6,1.29,4.97,4.72,4.97s8.23-3.09,17.15-10.81c3.77-3.26,10.89-9.26,15.87-13.29,17.24-14.15,66.22-62.36,73.85-72.73,3.86-5.32,10.21-8.32,13.29-6.26Zm-742.01,78.31c15.18,4.63,49.4,22.82,65.44,34.65,16.73,12.27,78.22,72.39,88.09,86.03,2.83,3.95,11.49,15.7,19.21,26.16s20.33,28.56,28.05,40.14c10.72,16.21,15.44,22.39,19.98,26.76,9.09,8.49,9.26,8.58,18.96,8.66,9.43.09,12.01,1.29,12.01,5.66,0,3.52-1.89,4.46-9.61,5.15-5.32.51-7.29,1.03-8.15,2.23-2.06,2.74-1.29,6.52,2.32,11.84,3.77,5.49,4.12,7.63,2.06,10.72-1.2,1.63-1.89,1.89-4.55,1.37-1.72-.34-5.06-1.63-7.55-2.92l-4.37-2.4-5.75,6.26c-3.09,3.52-6.26,6.35-6.86,6.35-.69,0-4.8-1.89-9.18-4.2s-11.84-5.58-16.55-7.29c-14.32-5.23-22.3-9.01-31.82-15.27-5.06-3.26-13.64-8.49-19.13-11.58s-12.61-7.55-15.87-10.04c-3.35-2.4-8.23-5.15-10.89-6.18-6.43-2.32-18.27-9.09-25.05-14.32-2.92-2.23-8.41-6.26-12.18-8.92-16.81-11.84-44.86-36.54-55.07-48.46-13.98-16.21-39.71-50.09-43.23-56.87-1.97-3.77-5.4-9.78-7.63-13.29-11.49-18.27-14.24-26.33-9.52-27.88,3.09-.94,5.92,1.03,8.58,6.18,3,6.09,12.44,20.41,20.5,31.39,10.89,14.67,21.44,24.62,26.33,24.62,3.35,0,5.58-2.4,5.58-6,0-3.86-1.72-6.09-14.92-18.87-8.58-8.32-17.5-20.33-22.56-30.19-3.6-7.03-7.12-19.9-7.72-27.88-.43-5.66-.34-6.69,1.03-7.63,5.83-4.29,19.47,2.57,41,20.5,12.18,10.21,16.21,12.09,19.81,9.69,1.2-.77,2.4-2.32,2.74-3.52,1.8-7.2-4.46-12.95-30.96-28.39-9.09-5.32-12.44-8.15-12.44-10.81,0-.86.86-1.97,1.97-2.4,1.03-.43,1.97-.77,1.97-.77.09-.09,2.74.69,5.92,1.72Zm847.85,43.92c6.18,3.09,7.81,4.89,6.35,7.2-.86,1.29-3,1.63-15.01,2.14-16.73.69-18.96,1.03-20.93,3.26-1.8,1.97-1.2,5.49,1.03,6.43.86.34,8.66,1.12,17.41,1.72,31.05,2.32,35.42,3.6,39.45,11.66,3.26,6.26,1.63,10.64-4.37,11.84-1.54.34-8.06.09-14.41-.6-14.24-1.37-43.4-.86-57.55,1.12-19.38,2.66-45.72,7.38-48.12,8.58-4.37,2.32-5.66,7.55-2.49,10.72,2.4,2.4,6.26,2.23,24.1-.86,44.34-7.55,82-10.98,85.34-7.63,1.03,1.12,1.2,1.8.43,3.17-1.54,2.92-5.32,4.89-12.95,6.95-13.21,3.43-56.95,18.01-63.39,21.1-3.52,1.72-8.15,4.37-10.29,5.92-2.14,1.63-8.41,5.58-13.81,8.83s-15.44,9.61-22.3,13.98c-28.3,18.27-43.74,26.33-72.82,38.34-22.9,9.43-39.88,15.01-67.85,22.56-12.52,3.35-29.42,8.06-37.65,10.38-16.3,4.72-24.79,6.6-41.26,9.26-5.92,1.03-15.01,3.17-20.33,4.97l-9.52,3.17-3.09-2.4c-3.35-2.49-4.72-5.92-3.35-8.15.51-.77,5.23-2.92,10.64-4.89,12.52-4.55,36.54-15.52,55.67-25.47,8.23-4.29,18.53-9.43,22.82-11.41,8.06-3.6,30.79-17.41,36.8-22.21,3.86-3.09,40.4-36.11,49.92-45.12,11.49-10.81,31.05-33.45,42.11-48.8,14.32-19.81,15.52-21.19,19.47-23.07,5.23-2.49,20.07-6.6,27.7-7.72,3.52-.51,10.38-2.14,15.35-3.69q9.09-2.66,24.62-2.14c8.58.26,20.84,1.12,27.45,1.89l11.84,1.37,6.18-3c7.03-3.6,8.41-3.52,16.81.6Zm-886.62,51.21c2.74,5.4,7.38,13.12,10.38,17.15s6.95,9.69,8.92,12.52c9.09,13.64,28.82,34.99,47.35,51.38,15.35,13.55,48.55,38.77,60.47,45.89,6.09,3.6,17.33,10.64,24.87,15.44,25.22,16.21,35.68,21.79,54.21,29.25,6.09,2.4,13.21,5.58,15.95,7.03,8.15,4.29,17.75,16.21,17.75,21.96,0,4.46-8.06,8.49-14.84,7.46-1.8-.34-5.32-1.54-7.72-2.74-2.4-1.29-7.89-3-12.18-3.86-13.55-2.74-20.93-5.83-57.72-24.27-12.95-6.43-29.51-13.98-38.17-17.24-8.41-3.26-17.33-7.12-19.73-8.58-37.14-22.82-62.87-40.74-75.14-52.32-6.35-6-37.57-42.11-45.63-52.75-5.83-7.72-9.52-15.35-9.18-18.96.43-5.15,2.57-4.2,12.09,5.06,4.8,4.63,10.12,9.26,11.75,10.29,4.29,2.49,7.63,6.35,13.29,15.1,11.49,17.67,42.29,43.49,76.34,63.99,13.21,7.89,45.37,23.93,49.49,24.62,2.66.34,3.26.17,4.55-1.72,2.74-4.29.86-5.83-24.79-20.24-23.84-13.47-32.76-19.13-43.31-27.53-4.97-4.03-14.67-11.58-21.53-16.64-15.95-11.92-19.21-15.1-22.73-21.96-1.54-3.09-4.37-7.72-6.35-10.29-5.15-6.78-18.18-19.81-27.1-27.02-11.32-9.18-15.87-14.58-17.67-21.19-.69-2.74-.6-3.77.51-5.49,3.43-5.23,9.26-4.29,17.58,2.74,3,2.57,6.26,4.89,7.2,5.15,2.57.86,3.95-1.8,3.95-7.63,0-3.6.26-4.97,1.12-4.72.51.17,3.26,4.72,6,10.12Zm246.59,62.27c1.03.69,3.86,4.2,6.18,7.72,2.4,3.52,8.41,10.64,13.29,15.87,11.06,11.66,12.35,15.27,6.09,17.33-3.35,1.12-6.95-.69-9.61-4.89-3.69-5.75-13.29-21.19-16.38-26.25-3.17-5.23-4.12-7.89-3.35-9.86.6-1.63,1.37-1.63,3.77.09Zm207.65,22.3c4.12,5.23,0,12.69-4.97,9.18-2.66-1.8-3.69-4.89-2.57-7.72,1.63-4.29,4.8-4.89,7.55-1.46Zm396.35,4.12c5.23,1.8,9.78,2.57,16.3,3,8.41.51,9.01.6,9.26,2.4.34,2.4-.51,2.57-23.67,3.6-15.01.69-18.87,1.2-22.04,2.57-3.86,1.72-4.37,2.57-3.86,7.38.34,4.46,7.03,4.89,27.28,2.06,16.21-2.32,27.79-1.8,44.77,1.89,6.43,1.37,21.36,9.26,25.9,13.64,3.52,3.35,4.12,4.46,4.12,7.2,0,6.6-1.46,7.38-18.61,9.61-14.07,1.8-16.38,2.49-17.07,5.15-.77,3,1.63,5.23,7.29,6.86,5.66,1.54,8.06,3.86,7.03,6.6-1.12,3-4.37,4.8-11.32,6.09-3.52.69-10.46,2.4-15.44,3.77-12.35,3.6-16.64,4.29-29.93,4.89-19.9.94-38.25,4.46-53.26,10.29-10.12,3.86-16.73,5.66-40.23,10.64-39.11,8.23-42.11,8.75-60.9,9.52-21.44.94-72.91-.34-89.03-2.14-11.66-1.37-39.28-7.72-47-10.81-6.35-2.49-18.36-15.44-18.36-19.73,0-3.95,10.46-8.92,21.61-10.29,3.69-.43,13.38-2.74,21.61-5.06,8.15-2.32,17.33-4.63,20.33-5.15,3-.43,7.98-1.63,11.06-2.57s14.5-4.29,25.3-7.29c44.6-12.61,79.34-26.67,112.19-45.37,11.84-6.69,20.07-9.61,29.93-10.72,3.86-.43,18.87-.69,33.28-.6l26.16.17,7.29,2.4Zm-496.45,4.37c2.14,4.72-3.35,9.35-7.03,6-2.06-1.89-2.14-3.69-.34-6.26,1.89-2.74,6.09-2.57,7.38.26Zm81.57,9.18c1.8,2.14,1.8,3.43.17,6.69-2.66,5.06-10.04,4.03-10.55-1.46-.69-6.78,6.09-10.21,10.38-5.23Zm-21.01,9.18c1.2.77,1.63,5.23.69,6.86-.77,1.29-5.06,1.2-6.35-.09-1.8-1.8-1.29-5.83.94-6.69,2.4-.94,3.35-1.03,4.72-.09Zm-53.95,1.46c1.54.34,4.89.09,7.46-.51,4.03-.94,4.8-.94,6.69.34,3.77,2.49,3.69,7.55-.26,10.55-1.89,1.46-7.89,1.29-9.86-.17-2.66-1.97-6.18-1.63-14.41,1.46-2.23.86-2.23.94-1.2,4.37,1.72,5.75,8.15,19.21,13.9,28.91,2.83,4.97,5.49,9.69,5.75,10.55.6,1.63-.51,3-6.86,8.32-2.23,1.89-2.66,2.92-3.17,8.15-.94,8.83-2.14,12.78-4.72,15.87l-2.32,2.83-3.17-2.83c-3.6-3.09-3.77-4.03-1.72-11.15,1.37-5.06,1.37-5.23-.26-7.46-3.09-4.12-3.95-4.2-10.04-1.29-6.95,3.43-8.75,3.52-10.46.17-2.32-4.46-1.37-8.66,3.6-15.27,3.17-4.29,4.8-3.6,8.49,3.26,1.72,3.26,3.69,6,4.37,6,1.72,0,6.35-2.4,8.66-4.55,2.57-2.4,2.4-4.46-1.03-10.04-1.63-2.57-3.35-6.86-3.86-9.52-.69-3.35-1.97-5.92-3.95-8.32-5.49-6.35-5.75-10.38-.94-14.58,3.6-3.17,4.29-4.29,3.26-5.58-.51-.6-1.12-2.4-1.46-4.12-.51-2.66-.26-3.43,1.46-5.06s2.66-1.8,7.55-1.37c3.09.26,6.86.69,8.49,1.03Zm142.9,1.63c2.4,2.32,2.57,3.43,1.2,7.03-1.8,4.8-8.49,9.69-13.12,9.69-2.4,0-5.66-3.6-5.66-6.18s3.17-8.06,5.66-9.69c5.23-3.43,9.18-3.69,11.92-.86Zm-173.86,5.75c1.03,2.66,1.03,3.69.09,6.86-.94,2.92-1.63,3.77-3.43,3.95-2.83.34-5.06-2.23-5.66-6.6-.69-4.89,1.46-7.98,5.15-7.63,2.23.17,2.92.77,3.86,3.43Zm91.09,4.63c3.52,2.32,11.15,9.95,13.04,13.12,2.06,3.17,1.29,4.37-2.92,4.37-9.69,0-17.84-5.32-17.84-11.75,0-3.77,1.97-7.12,4.12-7.12.86,0,2.49.6,3.6,1.37Zm45.29.51c.6.6,1.03,2.66,1.03,4.72,0,4.72-2.57,6.69-9.01,6.6-6.18-.09-10.21-1.72-13.29-5.15-5.15-5.92-3.43-7.2,9.86-7.2,6.95,0,10.72.34,11.41,1.03Zm-66.22,11.06c2.06,1.29,3.77,3.6,5.92,8.06,1.72,3.43,3.6,6.52,4.37,6.78s3.95.51,7.12.51c7.89,0,10.46,1.12,13.81,5.66,1.54,2.14,5.4,5.66,8.66,7.81,6.86,4.55,9.86,9.43,9.09,14.58-1.03,6.09-4.29,6.95-11.06,2.83-2.32-1.46-5.4-2.83-6.78-3.17-2.06-.34-2.57-.09-3.26,1.54-.43,1.2-.43,3.95,0,6.35,1.03,6.69.86,14.75-.43,17.93-1.46,3.43-6.6,6.86-9.35,6.18-1.12-.26-5.49-3.52-9.86-7.38-8.41-7.2-11.06-8.49-14.41-6.95-1.8.77-2.06,1.46-2.06,5.4,0,2.49.43,8.41.94,13.12,1.12,9.26,1.12,9.35-3.95,18.44-1.12,2.14-2.14,4.72-2.14,5.75,0,4.03-2.66,8.66-5.32,9.61-3.17,1.12-8.15,1.2-8.75.26-1.03-1.63,2.92-16.64,5.49-21.1,2.06-3.6,2.83-6.43,3.52-12.27,1.37-12.09.77-14.15-6.18-20.67-6.6-6.18-7.55-8.83-3.52-10.29,4.03-1.54,6.95-1.97,14.5-1.97,6.18,0,7.98.34,11.84,2.23,2.49,1.2,5.92,3.86,7.63,5.83,5.92,7.03,6.43,7.46,8.92,7.46,4.89,0,5.75-3.86,2.4-11.41-5.06-11.58-14.67-16.55-25.47-13.38-2.92.94-3.6.77-7.12-1.29-4.46-2.57-5.23-4.29-4.37-9.78.77-5.15,1.54-6.69,5.75-10.98,2.83-3,3.43-4.29,4.12-9.01,1.12-8.15,4.29-10.21,9.95-6.69Zm-23.76,2.4c.6.43,1.2,2.23,1.29,3.95.09,3.95-1.72,5.49-5.23,4.2-4.29-1.46-3.52-8.92.94-8.92.94,0,2.32.34,3,.77Zm104.38,3c.6,1.63-1.2,4.97-2.4,4.63-1.97-.69-2.74-3.09-1.63-4.46,1.46-1.72,3.43-1.8,4.03-.17Zm-162.79,4.12c3.35,7.12-9.69,13.72-14.07,7.12-1.2-1.8-1.2-2.23,0-4.63,1.8-3.43,5.23-5.23,9.52-4.97,2.74.17,3.6.6,4.55,2.49Zm155.93,3.69c3.09,1.97,3.77,4.55,2.4,8.15-2.23,5.49-6.18,6.6-12.27,3.43-6.86-3.43-9.09-10.12-4.37-12.69,2.74-1.46,11.32-.77,14.24,1.12Zm-137.41.09c2.4,2.32,1.46,7.2-1.37,7.2-1.03,0-2.06-1.03-2.83-2.74-1.89-4.63,1.03-7.72,4.2-4.46Zm-340.86,2.06c53.95,4.63,75.22,10.89,134.23,39.45,9.01,4.37,18.96,9.01,22.21,10.38,3.52,1.54,7.63,4.03,10.12,6.43,2.4,2.23,7.2,5.32,11.24,7.2,3.86,1.8,9.09,4.63,11.49,6.35,5.58,3.86,12.35,7.29,21.19,10.81,3.69,1.46,8.92,4.2,11.49,6,5.83,4.2,8.75,4.37,15.61.77,4.97-2.57,5.06-2.57,8.15-1.12,7.98,3.77,7.38,12.61-.77,11.15-1.46-.26-3.95-.69-5.49-1.03-3.17-.6-5.4.86-7.63,5.15-2.4,4.55-.94,7.46,8.41,17.33,5.23,5.49,8.49,9.61,8.32,10.46-.26,1.2-1.54,1.46-8.92,1.54-7.2.09-10.12.6-16.73,2.74-4.46,1.46-9.78,2.92-11.84,3.26-2.14.26-7.03,1.63-10.98,3-20.16,7.03-49.15,4.72-98.55-7.72-13.21-3.35-25.3-6.09-26.85-6.09-6.95,0-10.21,5.23-5.75,9.35,2.74,2.66,7.89,4.03,25.39,6.95,16.9,2.74,21.87,4.12,21.87,6s-8.83,4.03-22.3,5.58c-23.76,2.74-37.31,1.03-57.47-7.2-4.72-1.89-13.55-5.06-19.73-6.95-6.09-1.97-13.64-4.8-16.73-6.35-15.7-7.89-44.26-23.67-51.46-28.39-4.46-2.92-14.67-9.43-22.64-14.5-7.89-4.97-16.21-10.55-18.44-12.35-2.14-1.8-6.35-4.72-9.35-6.52-8.15-4.89-12.78-12.44-10.38-16.9,2.23-4.2,15.18.34,23.84,8.23,13.64,12.61,48.2,30.96,78.57,41.77,6.6,2.32,17.24,6.78,23.59,9.78,6.43,3,12.52,5.49,13.55,5.49,2.74,0,6.18-3.69,6.18-6.6,0-5.75-2.49-7.2-30.45-17.84-44.69-16.98-63.81-26.67-82.34-41.69-12.78-10.46-20.33-13.47-35.17-14.41l-9.43-.51-.26-2.49c-.43-3.43,1.97-9.18,4.97-12.09l2.49-2.4,12.27.09c6.78.09,16.13.69,20.84,1.37s15.18,1.46,23.16,1.8c17.58.69,26.16,1.63,32.25,3.77,2.57.94,12.01,2.83,20.93,4.29,20.59,3.43,50.26,9.61,64.33,13.47,5.92,1.63,16.64,5.15,23.84,7.98,29.93,11.49,75.14,24.96,79.94,23.76,1.37-.34,2.32-1.37,2.66-2.83.94-3.69-.6-6.43-4.89-8.58-5.23-2.57-83.11-28.48-89.03-29.59-2.57-.43-7.63-1.97-11.15-3.43-15.18-6-57.81-14.75-82.86-16.98-5.66-.51-14.32-1.89-19.3-3-6.78-1.54-13.38-2.23-26.59-2.92-19.04-.86-24.27-1.89-24.7-4.89-.17-1.46.51-2.14,3-3.17,4.55-1.8,11.32-3.09,20.84-4.03,10.12-.94,56.7-.43,71.19.86Zm504.17,2.23c1.03.69,1.89,1.63,1.89,2.06,0,1.54-4.2,3.6-6,3-2.14-.69-2.32-4.29-.17-5.49,1.97-1.2,2.06-1.2,4.29.43Zm24.96,14.41c6.43,3.26,10.38,7.2,10.38,10.46,0,2.57-2.23,8.23-3.69,9.09-2.06,1.37-4.29.6-8.06-2.66-2.06-1.89-4.89-3.69-6.35-3.95-3.77-.86-6.09-4.29-5.4-8.06.69-3.52,1.89-6.26,3.26-7.12,1.8-1.2,3.95-.69,9.86,2.23Zm-209.03,1.97c1.97,2.32,2.49,4.55,1.46,6.35-.69,1.37-1.63,1.63-4.46,1.46-3.52-.26-3.6-.34-3.86-3.52-.17-1.8.17-3.86.77-4.55,1.37-1.63,4.55-1.54,6.09.26Zm-55.24,8.83c3,2.83,1.97,6.09-2.49,7.63-3.86,1.37-6.78-.6-6.78-4.46,0-1.54.43-3.26,1.03-3.86,1.63-1.63,6.18-1.2,8.23.69Zm227.21,3.43c6.78,4.12,7.38,15.44,1.03,18.01-3.43,1.46-7.38-1.03-10.38-6.43-3.26-6-3.09-7.63,1.2-10.72,4.12-3,4.55-3.09,8.15-.86Zm-181.24,3.6c.77,1.03,1.37,3.52,1.37,5.4,0,2.92-.51,4.03-3.26,6.69-1.8,1.8-4.8,3.6-6.6,4.12-2.74.77-3.6.69-5.49-.77-4.37-3.26-2.57-12.27,3.17-15.87,3.52-2.14,9.18-1.89,10.81.43Zm555.89,5.32c5.49.51,14.75,3.35,21.01,6.52,10.64,5.4,25.99,17.07,27.45,20.93.34,1.03.26,2.49-.17,3.43-1.29,2.49-6.18,1.37-14.15-3.26-8.83-5.06-20.59-9.18-27.88-9.78-5.49-.34-5.83-.26-6.52,1.63-1.72,4.63.09,6.43,11.32,11.06,17.15,7.12,32.94,15.95,37.74,21.1,2.83,3.09,2.83,5.49-.09,8.92-2.23,2.66-2.49,2.74-7.46,2.32-2.92-.26-13.12-2.83-22.82-5.66-22.47-6.78-39.45-11.15-45.54-11.75-3.6-.43-5.58-.17-8.06.94-5.23,2.57-6.78,9.01-2.92,12.18,2.14,1.72,7.12,2.74,24.36,5.4,17.24,2.57,39.54,7.81,43.14,9.95,1.37.94,1.89,2.06,1.89,4.2,0,4.89-1.8,5.23-17.75,3.43-16.13-1.89-66.56-2.23-89.03-.6-46.32,3.26-45.72,3.26-84.74.69-56.09-3.6-65.62-4.8-90.32-10.81-23.5-5.83-37.74-11.41-49.15-19.47-7.03-4.97-27.36-25.3-29.68-29.68-1.97-3.69-1.37-5.4,2.57-7.38,3.52-1.72,13.12-.09,28.73,4.8,29.59,9.35,36.02,10.29,76.34,11.49,34.22,1.03,73.94,0,89.03-2.23,4.89-.77,16.47-3.26,25.73-5.58,9.26-2.23,21.19-4.97,26.33-6,5.23-1.03,18.1-4.72,28.73-8.15,18.36-6,29.25-8.66,37.74-9.18,3.86-.26,4.63-.26,14.15.51Zm-526.55,2.66c.86,2.06-1.37,6.43-3.17,6.43-1.46,0-3.35-2.32-3.35-4.2,0-2.83,5.58-4.72,6.52-2.23Zm25.05,11.58c4.89,3,3.86,5.75-6.43,16.38-7.29,7.63-7.89,9.78-2.92,10.64,6.43,1.12,9.09,7.29,4.12,10.04-2.32,1.2-21.1,1.97-22.82.86-2.4-1.63-.6-22.99,2.23-27.36,1.37-2.14,1.72-2.14,7.63-1.72,7.03.6,7.38.43,8.92-5.4.6-2.14,1.2-4.12,1.46-4.55.69-1.2,4.97-.6,7.81,1.12Zm161.34,1.2c2.49,2.23,2.23,4.97-.51,7.81-2.74,2.74-8.32,5.49-11.24,5.58-7.12.09-9.52-9.95-3.35-13.81,3.6-2.23,12.44-1.97,15.1.43Zm-62.61,7.03c2.49,3.09,2.49,9.61.09,12.18-3.77,4.03-7.89,3.26-11.15-1.97-2.4-3.86-1.8-7.81,1.54-10.89,4.03-3.77,6.18-3.6,9.52.69Zm-24.44,8.83c.94,1.03,1.37,2.66,1.2,4.55-.26,2.49-.6,2.83-3,3.09-4.46.43-5.58-3.69-2.14-7.81,1.63-1.89,2.14-1.8,3.95.17Zm-19.64,3.86c2.92,2.92,3.52,7.29,1.72,12.69-1.72,5.4-3.86,8.23-7.98,10.72-3.69,2.23-7.2,2.49-8.75.69-1.29-1.63-.17-6.6,3.6-15.61,4.37-10.55,7.2-12.69,11.41-8.49Zm-527.32,12.78c4.12,3.43,9.69,7.81,12.27,9.78,9.35,7.03,35.94,22.82,53.18,31.56,9.69,4.97,18.96,10.12,20.59,11.49,2.92,2.4,2.92,2.57,1.46,4.12-1.37,1.37-2.92,1.54-12.44,1.46-12.35-.09-20.33-1.37-42.89-6.78-27.28-6.6-33.62-9.01-33.62-12.52,0-2.14,1.89-2.14,14.15,0,20.07,3.52,26.16,3.26,26.16-1.12,0-3-1.37-3.69-9.35-4.8-4.97-.69-10.55-2.32-17.84-5.23-5.83-2.4-13.9-5.06-17.93-6.09-5.49-1.37-7.89-2.4-9.86-4.29-3.26-3.26-3.17-5.15.43-9.52,3.69-4.63,4.8-6.86,4.8-9.52,0-2.92.86-4.8,2.23-4.8.6,0,4.55,2.83,8.66,6.26Zm646.98-1.12c1.54,2.83.69,6.26-1.8,7.63-2.06,1.12-2.49,1.12-4.55-.17-2.4-1.63-2.92-4.55-1.37-7.55,1.29-2.32,6.43-2.23,7.72.09Zm-98.64,9.09c6.86,5.83,6.95,14.07.17,16.21-4.55,1.37-8.49-4.8-7.63-12.09.43-3.95,1.8-6.35,3.6-6.35.69,0,2.32,1.03,3.86,2.23Zm-126,9.95c1.03,3.95-.26,6.95-3.35,7.89-4.29,1.2-7.03-.43-7.03-4.12,0-5.92,8.92-9.18,10.38-3.77Zm56.09-1.37c3.69,1.46,5.23,10.98,2.23,13.98-1.89,1.89-6.78,3.09-9.35,2.23-4.63-1.46-2.14-12.44,3.43-15.61,2.4-1.29,1.97-1.2,3.69-.6Zm30.88,8.32c2.92,4.2-.09,8.92-6.26,9.78-2.92.43-3.6.17-4.46-1.46-1.37-2.57-1.29-7.46.09-9.09,2.66-3.26,8.15-2.83,10.64.77Zm171.71,7.03c19.56,3.69,28.13,6.43,46.57,14.75,23.67,10.72,25.73,11.75,46.4,23.24,11.06,6.09,24.79,13.47,30.45,16.38,5.75,2.92,16.13,9.01,23.16,13.64,15.87,10.55,48.29,35.6,61.33,47.6,11.75,10.72,30.45,29.85,36.62,37.31,8.75,10.55,18.36,26.33,19.47,31.91.34,1.63,2.23,6.86,4.29,11.58,6.43,14.92,6.86,19.81,2.49,26.42-3.26,4.89-3.43,8.49-.86,15.95,2.66,7.72,2.83,11.15.43,14.15-1.29,1.72-2.49,2.23-4.97,2.23-4.29,0-6.09-1.46-10.38-8.58-9.86-16.3-22.47-25.65-61.76-45.89-12.09-6.18-23.76-12.52-25.99-14.07-2.23-1.46-6-3.35-8.41-4.03-5.58-1.63-23.24-9.09-40.74-17.15-13.98-6.43-18.1-7.46-20.07-4.97-1.63,1.89-1.37,6.09.43,8.06,2.57,2.83,20.67,12.01,44.69,22.82,12.27,5.4,27.53,12.87,34.05,16.47,32.16,17.93,39.71,22.39,50.95,29.85,12.44,8.23,14.84,10.72,14.84,15.35,0,3.26-1.37,5.32-3.86,5.92-2.66.69-10.55-3.17-22.47-10.98-17.24-11.32-50.26-27.36-86.46-42.11-17.24-6.95-29.76-13.29-53.18-26.59-11.32-6.52-23.5-13.04-27.02-14.58-10.55-4.55-15.01-7.03-26.07-14.5-12.69-8.58-19.21-13.72-32.76-25.9-5.66-5.15-13.47-11.84-17.33-14.75-15.7-12.27-28.3-28.91-31.91-42.2-.6-2.14-1.03-7.72-.94-12.52.09-9.61-.09-9.86-5.66-13.47-1.97-1.29-4.29-3.26-5.06-4.55-1.37-2.06-1.37-2.32.17-4.29.86-1.2,5.15-4.03,9.35-6.18,7.72-4.03,7.72-4.12,7.98-7.63.17-2.83-.09-3.77-1.72-4.89-1.03-.77-3-1.37-4.37-1.37-1.29,0-3.69-.6-5.32-1.2-2.32-1.03-3-1.8-3-3.43,0-3.35,3-5.92,6.26-5.4,1.54.26,4.37.77,6.35,1.03,2.92.51,4.8.17,9.43-1.72,13.9-5.58,22.3-5.92,44.6-1.72Zm-176.95,13.55c1.37,1.89,1.54,2.66.69,4.46s-1.54,2.14-4.37,2.14c-4.03,0-5.66-2.06-4.8-6.09,1.03-4.63,5.23-4.89,8.49-.51Zm268.64-1.2c7.46.94,17.67,1.97,22.64,2.23,4.89.34,12.27,1.37,16.3,2.23,20.84,4.37,34.91,7.89,36.62,9.01,1.12.69,3,3.26,4.2,5.75,3.26,6.43,6.43,9.43,17.33,16.21,25.3,15.7,52.84,37.57,72.31,57.47,5.92,6,11.41,10.98,12.18,10.98,4.37,0,5.4-7.12,1.8-12.52-3.6-5.49-18.1-19.64-29.08-28.56-12.18-9.78-23.33-17.24-40.74-27.19-11.24-6.43-18.01-11.66-18.01-13.98,0-1.8,2.32-2.57,5.32-1.72,6.69,1.8,45.29,22.47,55.32,29.59,7.63,5.4,21.36,18.61,28.13,27.02,7.63,9.35,23.07,38.08,26.25,48.63l1.03,3.69-3.69,3.77-3.69,3.77.51,9.09c.34,8.41.26,9.35-1.29,10.89-1.46,1.46-2.57,1.72-6.78,1.37-7.55-.51-12.52-4.37-23.84-18.61-17.07-21.36-44.34-49.23-57.98-59.27-2.83-2.06-9.01-7.03-13.72-10.98-22.99-19.21-62.36-42.2-96.49-56.35-17.41-7.2-23.16-10.21-23.16-12.01,0-2.49,1.54-2.57,18.53-.51Zm-384.69,7.72c3,3.09,3.17,5.49.34,8.23-2.57,2.57-5.75,2.74-9.09.34s-4.46-4.63-3.35-6.69c2.74-5.15,7.98-6,12.09-1.89Zm-21.96,1.8c1.97,0,6.43,4.29,6.43,6.18,0,2.57-5.92,8.06-9.78,9.09-6.69,1.89-11.49-2.49-9.09-8.32,1.72-4.29,7.29-8.23,10.12-7.29.69.17,1.72.34,2.32.34Zm-24.62,16.47c.6.6,1.03,2.49,1.03,4.29,0,2.4-.51,3.52-1.89,4.46-1.12.69-15.7,4.72-32.51,9.01-34.91,8.83-51.98,14.15-61.5,19.13-18.96,9.95-22.73,11.84-24.36,11.84-5.83,0-42.8,21.27-62.01,35.6-6.26,4.72-11.15,6.86-13.55,5.92-.77-.26-1.89-2.06-2.32-3.95-.51-1.8-1.54-3.6-2.32-3.86-2.23-.86-13.47,2.92-26.42,8.75-16.38,7.46-74.71,37.65-83.2,43.06-11.41,7.38-14.75,11.92-11.58,15.87,3.52,4.55,8.83,3.52,18.18-3.43,5.06-3.69,20.16-12.01,38.85-21.44,6.69-3.26,16.73-8.83,22.3-12.18,11.24-6.78,28.05-15.52,33.88-17.58,11.92-4.2,8.49.86-12.18,17.75-7.46,6-14.75,12.52-16.3,14.5-1.46,1.89-5.23,5.06-8.41,7.12-3.09,2.06-10.46,8.41-16.47,14.07-9.01,8.58-11.49,10.46-14.15,10.89-7.46,1.12-30.88,9.43-40.31,14.32-8.15,4.2-10.46,5.06-13.38,4.8-3.43-.26-3.6-.43-3.86-3.17-.26-2.06.51-4.12,2.74-7.81,3.86-6.18,4.63-9.52,2.66-11.41-2.32-2.32-6.09-1.8-9.61,1.46-5.92,5.23-9.18,6.09-11.84,3.09-1.12-1.2-1.63-3.09-1.63-5.92,0-6,3.95-12.52,9.86-16.47,5.23-3.52,14.58-13.12,16.64-17.15,1.29-2.4,1.29-2.83,0-4.72-.94-1.46-2.14-2.06-3.95-2.06-3.35,0-5.4,1.12-10.55,5.75-4.97,4.46-7.98,5.49-9.69,3.26-.6-.94-1.12-1.89-1.12-2.14,0-3.77,24.36-29.08,37.74-39.2,10.98-8.23,26.42-16.98,56.61-31.91,40.4-20.07,65.7-30.11,84.91-33.79,16.98-3.35,32.34-5.58,54.04-7.98,10.64-1.12,24.36-2.83,30.45-3.77,13.9-2.06,28.39-3.26,55.32-4.63,28.22-1.54,28.65-1.54,29.85-.34Zm261.78,8.83c.6.77,1.29,3.26,1.54,5.58l.34,4.12-3.17.94c-4.89,1.37-7.29-.51-7.29-5.66s5.66-8.49,8.58-4.97Zm-225.58,9.43c1.03,1.29.86,5.23-.51,10.81-.77,3.26,3.17,7.63,6.95,7.63,2.66,0,3.86-.6,14.5-7.98,4.29-3,8.15-3,10.81-.09l2.06,2.14-1.54,4.03c-2.66,7.03-2.66,8.15.26,9.78,3,1.63,3.52,4.37,1.2,6.86-2.74,3.09-7.29,1.46-8.83-3.09-.77-2.32-1.72-3.26-4.03-4.03-6.69-2.23-16.3,1.46-27.02,10.46-9.09,7.55-38,34.82-71.88,67.67-34.99,33.97-39.2,37.91-49.32,46.49-4.2,3.6-8.66,7.55-9.86,8.83-4.72,5.15-8.66,7.55-14.41,8.75-6.18,1.29-9.69,3.09-19.38,10.04-3.43,2.49-8.58,5.4-11.32,6.52-6.18,2.4-9.61,4.37-15.78,9.01-2.57,1.97-9.52,6.52-15.44,10.21-5.92,3.6-25.56,17.24-43.74,30.19-18.18,12.95-34.74,24.36-36.8,25.3-2.06,1.03-5.15,1.89-6.86,1.97-2.83.09-3.09-.17-3.35-2.4-.26-1.8.6-3.86,3-7.29,4.63-6.6,5.66-9.52,4.63-12.35-1.72-4.37-6.43-3.86-13.9,1.63-2.32,1.63-5.23,3.09-6.52,3.17-2.06.17-2.4-.17-2.66-2.32-.51-4.46.69-8.06,4.63-13.98,2.23-3.26,7.2-11.32,11.15-18.1,9.69-16.64,16.13-25.65,29.42-41.34,16.21-19.13,18.53-21.36,29.33-28.48,5.4-3.52,13.21-9.18,17.5-12.61,10.64-8.49,25.05-18.36,34.74-23.67,4.46-2.4,17.24-9.69,28.3-16.04,11.06-6.35,23.24-13.21,27.02-15.27,3.77-2.06,8.06-4.55,9.61-5.66,1.46-1.12,7.46-4.29,13.29-7.03,5.83-2.83,11.75-6.26,13.38-7.81,5.83-5.92,1.97-12.44-6.09-10.29-5.4,1.46-43.23,20.76-63.21,32.34-9.69,5.58-22.73,13.04-28.99,16.47-6.35,3.43-12.69,7.29-14.15,8.58-1.54,1.29-6.26,4.72-10.64,7.55-4.37,2.92-12.27,8.92-17.58,13.29-5.32,4.29-13.04,10.46-17.15,13.64-11.66,9.18-39.37,39.37-44.09,48.29-1.29,2.32-4.29,7.2-6.78,10.72-2.4,3.52-6.6,10.21-9.26,14.75-4.89,8.32-7.38,10.98-10.21,10.98-.77,0-1.89-.77-2.4-1.72-1.37-2.57.34-7.98,5.06-15.87,2.32-3.77,5.23-9.01,6.52-11.58,4.29-8.58,14.58-23.42,22.39-32.59,4.29-4.97,14.67-15.61,23.16-23.67,35.42-33.88,43.06-39.71,87.4-66.99,25.22-15.52,26.16-16.04,38-20.76,4.72-1.89,13.55-5.49,19.56-8.06,12.44-5.23,19.81-7.63,27.45-9.09,2.92-.51,13.9-3.6,24.44-6.86,10.55-3.26,20.76-6.18,22.64-6.43,1.89-.34,7.55-1.97,12.52-3.77l9.09-3.09,7.63,1.12c4.2.69,8.83,1.37,10.38,1.54,2.4.43,2.92.09,5.06-3.26,5.06-7.89,8.23-10.12,10.64-7.2Zm220.69,20.24c5.4,2.83,14.32,12.35,18.61,19.81,2.4,4.29,4.89,7.38,7.2,9.01,1.97,1.37,10.12,8.49,18.1,15.78,8.06,7.29,18.44,16.55,23.24,20.67,14.92,12.78,37.4,37.91,47.69,53.26,2.92,4.29,7.46,10.81,10.12,14.32s7.72,11.24,11.32,17.15c3.52,5.92,7.98,13.29,9.86,16.38,4.89,7.81,12.78,23.76,13.9,27.96.51,1.97,4.03,10.46,7.72,18.87,6.6,14.92,8.32,19.56,13.64,36.28,1.37,4.46,5.06,13.55,8.15,20.24,7.2,15.35,10.21,24.27,10.29,30.62.09,4.12-.17,5.32-1.54,6.35-2.92,2.14-8.23.94-13.9-3.09-2.74-1.97-7.38-5.23-10.21-7.29-2.92-2.06-8.92-7.98-13.47-13.12-4.46-5.15-9.09-9.86-10.38-10.46-1.97-1.12-2.4-1.03-4.03.43-2.23,2.06-1.72,5.15,1.8,10.64,2.83,4.46,3.52,9.43,1.2,9.43-2.74,0-23.33-15.52-43.23-32.42-23.76-20.33-36.62-32.85-60.73-59.35-38.77-42.54-45.63-50.61-58.41-69.05-3.95-5.66-10.12-13.98-13.72-18.44-6.52-8.15-8.66-11.75-22.13-37.31-4.03-7.55-7.63-14.15-8.06-14.67-1.89-2.32-3.35-8.92-4.2-19.04-.77-9.86-1.2-11.49-3.86-16.64-3.52-6.86-3.77-9.43-.86-12.27,4.8-4.89,12.27-1.54,13.04,5.83.6,4.72,2.49,6.6,6.86,6.6,3.77,0,7.12-3.26,11.24-10.72,3.52-6.52,3.09-6.35,11.49-5.06,7.63,1.12,8.06.77,12.69-10.64,1.12-2.49,5.66-2.57,10.55-.09Zm-86.46,8.92c4.8,4.72.51,16.73-6,16.73-3.95,0-9.43-5.92-8.58-9.26.86-3.43,2.74-6.09,5.83-7.89,3.69-2.32,6.26-2.14,8.75.43Zm-42.03,1.72c3.95,3.86,2.06,10.21-3.35,11.24-6.09,1.12-9.18-2.32-7.38-7.89,1.8-5.49,7.03-7.12,10.72-3.35Zm-44.26,15.27c1.54.69,2.74,2.57,4.03,6.18.94,2.83,3.69,9.35,6,14.58,3.77,8.49,4.2,10.04,4.2,15.87,0,6.35-.17,6.69-7.03,21.01-8.32,17.41-12.69,28.39-14.92,37.91-.86,3.95-3.95,14.67-6.78,23.84-5.75,18.87-7.72,26.33-10.64,41.6-1.2,5.92-3.86,19.21-6,29.59-2.14,10.38-3.95,19.81-3.95,20.93s-1.97,5.83-4.29,10.55c-7.12,13.9-14.5,35.17-16.73,48.03-.69,4.03-2.66,11.24-4.29,15.87-4.37,11.92-5.75,16.55-10.64,34.99-7.55,28.65-9.01,32.16-12.78,30.96-3.09-1.03-3.17-4.29-.34-18.44,4.55-22.3,4.46-27.53-.17-27.53-5.92,0-8.49,7.89-11.58,35.77-.94,8.15-2.14,15.52-2.57,16.47-2.4,4.37-8.49,2.74-11.24-3-1.63-3.26-1.89-5.75-2.32-19.81-.6-19.73,1.03-61.5,2.74-72.91,3.77-25.47,12.69-59.18,27.88-105.33,12.61-38.25,13.38-44.26,5.92-44.86-4.2-.34-5.66,1.63-10.29,13.38-5.92,15.44-21.87,64.07-25.99,79.51-10.64,39.97-14.84,76.34-13.29,116.31.34,9.18.34,18.01,0,19.64-1.29,6.26-5.92,3.17-8.66-5.75-4.63-14.92-6.43-34.39-5.75-62.44.43-18.01.86-23.07,3.6-40.31,4.8-30.28,10.12-51.63,21.87-87.06,6.6-19.81,9.09-25.65,14.5-34.14,2.4-3.69,5.32-9.26,6.52-12.44,6.95-18.61,27.1-49.92,48.38-75.39,7.46-8.83,10.29-11.41,20.84-18.7,9.52-6.52,17.07-8.15,23.76-4.89Zm79.6,4.89c1.46,3.26,0,10.55-3.35,15.7-4.12,6.35-3.77,10.21,2.23,29.76,4.46,14.67,6.86,25.22,9.01,39.45.43,3.09,1.46,8.32,2.14,11.58,3.95,18.18,4.03,138.18.09,163.4-.69,4.46-1.72,12.35-2.14,17.58-1.29,13.81-2.32,19.3-5.75,31.31-3.69,12.78-5.75,17.84-7.55,18.53-.86.34-2.49-.69-4.63-3-1.8-1.89-3.69-3.52-4.29-3.52-2.49,0-4.2,1.8-4.72,4.97-.26,1.89-1.72,4.89-3.26,6.78-1.54,1.97-4.89,6.09-7.46,9.26-5.49,6.78-8.06,8.06-11.15,5.75-2.06-1.54-2.74-3.17-7.03-17.15-2.66-8.66-6.95-11.92-10.64-7.89-1.37,1.54-1.46,2.83-1.03,12.35.43,8.83.26,10.89-.77,11.75s-1.72.77-3.52-.6c-2.57-1.97-3.35-3.86-7.89-20.07-1.97-6.86-5.83-19.73-8.66-28.65-6.18-19.47-11.06-43.31-12.01-59.27-1.12-16.9.69-48.38,3.95-69.05,5.06-32.85,19.98-87.23,30.11-110.22,1.89-4.29,4.55-10.81,5.83-14.5,5.32-15.01,19.21-30.53,28.48-31.91,3.6-.51,4.8-1.29,9.26-5.92,5.49-5.75,10.38-9.18,12.44-8.75.69.09,1.72,1.12,2.32,2.32Zm-143.92,17.75c1.03,1.89-.43,4.8-6.26,12.09-2.4,3.09-9.43,12.78-15.7,21.53-10.98,15.52-17.67,27.19-31.39,54.55-5.66,11.32-15.27,36.45-18.61,48.89-1.03,3.77-3.17,10.55-4.8,15.01-4.55,12.95-6.09,19.9-7.12,33.02-.43,4.72-1.72,12.61-2.92,17.58s-2.57,12.44-3.09,16.55c-1.37,10.72-3.86,16.73-18.1,44.77-6.86,13.64-14.07,28.73-15.78,33.45-1.8,4.72-3.86,10.29-4.72,12.44-1.54,4.2-4.2,5.83-8.15,4.8-2.92-.77-3.95-3.43-3.95-10.81,0-14.84,5.92-57.21,9.95-71.62,2.32-7.98,17.07-47.86,19.64-52.66.77-1.54,2.66-4.46,4.2-6.52,1.63-2.06,3.95-6.52,5.23-10.04,1.29-3.43,6.78-14.84,12.18-25.3,10.55-20.59,12.61-25.39,11.75-27.88-.6-1.97-3.95-2.06-6.86-.09-3.95,2.57-22.73,31.22-26.16,39.88-.94,2.4-4.89,11.32-8.83,19.9-6.69,14.41-20.84,48.89-24.02,58.15-5.23,15.7-8.06,33.02-9.09,56.44-.51,10.12-1.29,19.47-1.8,20.84-1.37,3.26-4.55,3.95-7.2,1.46-3.86-3.69-4.29-6.52-4.29-30.88,0-22.21.09-22.9,2.49-32.16,3.43-13.21,12.09-39.71,15.95-48.46,1.72-4.03,3.86-9.35,4.63-11.92,1.8-5.49,14.41-30.96,23.5-47.26,15.52-27.96,28.13-44.6,54.64-72.05,4.8-4.97,12.18-13.04,16.38-18.01,15.52-18.44,43.92-47.17,46.57-47.17.51,0,1.2.69,1.72,1.46Zm167.94,16.73c2.49,2.32,2.49,4.72.09,7.29-2.32,2.49-3.09,2.49-5.58.09-2.32-2.14-2.57-5.49-.51-7.72,1.8-2.06,3.6-1.97,6,.34Zm-294.11,96.06c2.49,2.49.26,7.29-9.95,21.79-8.92,12.61-11.41,17.07-14.24,25.13l-2.66,7.29-7.55,5.32c-11.58,8.06-34.22,25.82-44.77,35.08-14.41,12.78-30.45,23.59-34.91,23.59-2.74,0-3.52-1.03-4.12-5.58-.43-3.17-.69-3.43-3.26-3.69-3.26-.34-8.66,2.57-12.35,6.52-4.63,5.06-17.75,4.8-19.04-.34-.69-2.66,1.54-11.41,4.2-16.64,2.4-4.8,5.4-7.46,13.12-11.75,8.15-4.46,14.84-9.09,21.44-14.75,12.61-10.72,27.62-21.27,48.2-33.97,8.23-5.06,23.5-14.75,33.88-21.44,18.61-12.01,28.05-17.58,29.93-17.58.6,0,1.46.43,2.06,1.03Zm441.47,94.78c1.89,1.2,8.06,6.18,13.72,10.89,28.39,23.84,46.66,37.48,59.78,44.6,6.95,3.77,8.41,6.09,9.01,14.58.43,5.66.34,6.26-1.72,8.06-2.83,2.66-3.95,2.23-14.15-5.32-20.07-15.01-39.45-33.02-59.01-54.98-11.15-12.44-14.75-17.58-13.64-19.3.86-1.37,2.4-1.03,6,1.46Zm-406.73,59.44c1.2,4.63-.6,16.04-3.6,22.64-3.77,8.32-11.92,22.56-14.84,25.9-1.97,2.23-3.26,2.92-5.4,2.92-5.23,0-4.72-2.92,3.95-21.19,2.83-6,6.78-14.67,8.58-19.13,6-14.24,9.61-17.84,11.32-11.15Z"/>
    <path class="cls-1" d="m743.93,163.1c-3,3.09-6.69,11.49-9.86,22.47-2.66,9.09-2.74,10.81-.51,13.55,3.17,4.12,8.32,3.52,10.81-1.2,2.4-4.63,9.01-24.79,9.52-29.16.43-3.52.17-4.29-1.72-6.18-2.92-2.92-4.97-2.83-8.23.51Z"/>
    <path class="cls-1" d="m728.49,232.92c-3.69,4.72-7.38,17.84-9.95,35.51-.77,5.4-2.57,14.07-3.95,19.3-1.37,5.15-4.63,17.84-7.2,28.13-2.57,10.29-5.83,22.64-7.2,27.45-4.12,14.58-4.03,17.67.69,19.98,5.92,3,9.69-4.97,18.18-38.25,2.4-9.18,5.83-21.96,7.72-28.3,4.2-13.98,6.69-24.96,6.78-29.59,0-1.89.94-7.63,2.14-12.78,3.09-13.81,3.43-16.81,1.89-20.5-1.2-2.83-1.72-3.17-4.37-3.17-2.14,0-3.43.6-4.72,2.23Z"/>
    <path class="cls-1" d="m523.92,153.67c-3.17,5.06-3.52,8.41-3.43,31.14.09,28.91,2.23,47.09,6.26,51.98,1.2,1.46,2.06,1.72,3.86,1.29,3.77-.94,4.2-3.52,3.17-19.81-.51-8.06-1.29-23.24-1.8-33.88-.86-19.73-1.54-28.48-2.23-31.14-.69-2.14-4.37-1.89-5.83.43Z"/>
    <path class="cls-1" d="m538.16,277.44c-4.46,3.17-3.86,9.09,3.26,32.59,11.15,37.05,15.78,46.06,22.64,44.69,1.46-.34,3-.94,3.43-1.37,1.37-1.37-1.54-13.47-6.43-27.02-2.32-6.6-5.83-17.5-7.72-24.19-4.29-15.52-6.35-20.93-8.92-23.76-2.4-2.57-3.6-2.74-6.26-.94Z"/>
    <path class="cls-1" d="m845.91,196.98c-5.23,5.92-18.7,26.33-30.88,46.57-12.18,20.24-27.45,49.49-27.45,52.58,0,5.23,5.83,8.23,10.12,5.23,3.52-2.49,15.52-24.44,20.76-38,1.54-3.95,4.97-10.46,7.72-14.58q31.22-47.09,30.71-52.58c-.26-2.66-.43-2.83-3.77-3.09-3.26-.26-3.86.09-7.2,3.86Z"/>
    <path class="cls-1" d="m515.69,397.78c-2.32.69-5.15,3.86-5.15,5.66s4.63,10.12,11.32,19.98c8.06,12.09,11.66,15.01,16.3,13.04,3.6-1.46,3.77-3.69.77-9.69-4.72-9.69-17.15-26.93-20.59-28.73-.77-.43-1.97-.51-2.66-.26Z"/>
    <path class="cls-1" d="m988.03,294.94c-2.23,1.29-7.12,6.78-28.73,32.08-11.41,13.38-12.69,18.7-4.63,19.3,5.83.43,8.83-1.72,16.21-11.24,3.6-4.8,10.21-12.78,14.58-17.75,11.15-12.52,13.38-17.58,9.52-21.19-2.92-2.57-4.37-2.83-6.95-1.2Z"/>
    <path class="cls-1" d="m922.16,363.47c-2.06,1.37-9.26,7.12-16.04,12.87-6.78,5.83-15.18,12.44-18.7,14.84-10.64,7.2-49.49,36.37-51.89,39.03-3.43,3.69-4.29,5.92-3.43,8.23,2.14,5.58,7.98,5.49,16.9-.34,6.69-4.29,40.83-30.28,59.53-45.29,6.86-5.4,14.84-11.58,17.75-13.64,5.92-4.12,9.43-9.61,8.41-13.12-1.72-5.49-6.35-6.43-12.52-2.57Z"/>
    <path class="cls-1" d="m328.96,339.19c-3.09,1.29-4.2,4.12-3.26,7.89.6,2.66,4.37,6.43,17.93,18.27,12.95,11.32,50.69,49.92,81.74,83.63,27.62,29.93,31.99,34.31,35.6,35.17,3.26.86,7.12-2.74,6.35-5.83-2.49-10.12-107.99-121.8-130.37-138.01-3.77-2.74-4.2-2.74-7.98-1.12Z"/>
    <path class="cls-1" d="m303.83,403.09c-3.77,3.77-1.8,7.98,9.35,20.41,12.95,14.41,39.54,37.4,69.99,60.3,12.27,9.26,16.47,12.01,21.87,14.24,6.43,2.66,9.86,2.57,11.66-.17,2.49-3.77.43-6.69-9.01-12.87-4.55-3-15.61-11.49-24.53-19.04-9.01-7.46-19.38-15.87-23.16-18.7-14.41-10.81-30.28-25.47-39.11-36.2-7.63-9.26-13.21-11.84-17.07-7.98Z"/>
    <path class="cls-1" d="m442.18,513.82c-2.06,2.14-1.29,5.75,2.06,9.01,3.6,3.6,17.67,10.64,25.73,12.87,5.15,1.46,5.49,1.37,7.12-.09.94-.86,1.72-2.14,1.72-2.83,0-2.92-8.15-9.18-18.36-14.24-10.55-5.15-16.38-6.69-18.27-4.72Z"/>
    <path class="cls-1" d="m1064.03,347.69c-5.83,2.66-5.66,8.83.17,11.32,6,2.49,17.07,1.12,20.07-2.57,4.37-5.23-12.18-12.35-20.24-8.75Z"/>
    <path class="cls-1" d="m994.64,413.3c-7.72,2.74-23.42,11.15-44.09,23.5-34.05,20.33-38.85,23.76-41.77,29.25-1.2,2.32-1.2,2.66.26,3.69,2.49,1.89,6.69.69,15.78-4.37,4.46-2.49,12.18-6.6,17.15-9.09s15.61-8.23,23.59-12.87c8.06-4.55,18.44-10.38,23.16-12.95,13.55-7.38,17.15-11.84,13.64-16.9-1.54-2.23-2.06-2.32-7.72-.26Z"/>
    <path class="cls-1" d="m1092.67,529.52c-7.29,1.97-10.21,6.86-7.03,11.41,1.89,2.66,5.92,3.17,15.44,2.06,10.04-1.2,14.84-2.92,15.52-5.75.94-3.6-.34-6.35-3.52-7.72-3.6-1.46-14.75-1.46-20.41,0Z"/>
    <path class="cls-1" d="m1041.9,537.84c-3.26.43-12.01,2.14-19.3,3.86-32.25,7.38-45.54,9.61-65.19,11.06-16.98,1.2-28.05,2.32-31.05,3.09-3.6.94-4.97,3.69-3.6,7.46,3.77,10.46,30.28,8.92,97.27-5.83,14.84-3.26,29.59-6.35,32.76-6.95,9.09-1.46,12.44-5.49,8.66-10.12-2.66-3.26-8.23-3.95-19.56-2.57Z"/>
    <path class="cls-1" d="m644,542.22c-3,2.66-3.69,6.6-1.63,9.09,1.12,1.37,3.35,2.23,8.23,3.17,3.6.69,8.15,2.06,10.04,3,8.32,4.29,18.7-.26,12.78-5.66-1.29-1.2-3.17-1.63-7.38-1.63-5.49-.09-5.66-.17-8.66-3.77-2.92-3.52-7.12-6.09-9.95-6.09-.69,0-2.23.86-3.43,1.89Z"/>
    <path class="cls-1" d="m1018.31,628.24c-4.46.69-13.9,1.2-21.01,1.2s-22.9.77-35.17,1.72-27.28,1.89-33.45,2.23c-6.09.34-11.66.94-12.18,1.46-1.46,1.2-1.37,4.55.17,7.55,2.23,4.37,4.89,4.55,37.14,3,31.48-1.46,38-2.14,45.89-4.8,3.09-1.03,6.35-1.54,7.89-1.29,1.37.17,4.89.86,7.72,1.37,6.6,1.29,20.93.51,24.36-1.29,4.89-2.49,5.92-7.72,2.14-10.64-2.74-2.14-10.29-2.32-23.5-.51Z"/>
    <path class="cls-1" d="m860.23,699.01c-5.58,4.37-1.37,11.92,8.83,15.87,3.17,1.2,10.98,5.4,17.33,9.35,11.92,7.38,15.61,9.09,19.73,9.09,4.46,0,5.83-1.37,5.83-5.58,0-3.26-.34-4.03-2.74-5.83-3.6-2.66-24.44-14.58-34.57-19.73-10.04-5.15-11.49-5.4-14.41-3.17Z"/>
    <path class="cls-1" d="m780.89,722.25c-1.8.69-3.6,3.77-3.6,6.35,0,.6,1.46,2.83,3.26,4.89,3.35,4.12,33.02,30.96,36.88,33.45,3.09,2.06,5.75,1.97,7.98-.26,1.54-1.54,1.72-2.49,1.29-5.83-.43-3.43-1.2-4.63-5.92-9.09-5.75-5.58-30.36-27.1-32.16-28.22-2.23-1.37-5.83-1.97-7.72-1.29Z"/>
    <path class="cls-1" d="m961.1,745.15c-3,.94-5.4,3.35-5.4,5.58,0,3.26,3.52,7.12,12.44,13.72,18.01,13.21,50.35,44.43,62.36,60.21,3.6,4.72,9.86,12.44,13.9,17.15,7.2,8.49,8.32,10.21,11.24,17.33,1.8,4.29,3.43,5.92,6.6,6.69,3.26.86,7.55-3.35,7.55-7.38,0-4.37-1.03-5.92-29.51-44.52-11.41-15.44-72.82-70.76-77.02-69.39-.17.09-1.12.34-2.14.6Z"/>
    <path class="cls-1" d="m348.43,724.48c-4.29.77-39.11,9.01-43.66,10.29-12.18,3.52-44.34,19.04-49.49,23.84-3.43,3.26-3.6,4.97-.77,7.72,3.69,3.77,8.58,2.66,27.45-6.43,15.52-7.38,27.45-11.92,45.89-17.58,20.76-6.26,27.36-8.83,30.28-11.66,2.66-2.74,2.83-3.6.94-5.4-1.29-1.37-5.66-1.63-10.64-.77Z"/>
    <path class="cls-1" d="m196.36,780.92c-1.72.69-8.49,4.63-15.01,8.83-6.43,4.2-13.55,8.66-15.87,9.95-4.89,2.92-7.46,6-7.46,9.09,0,2.74,2.32,5.15,4.97,5.15,4.97,0,21.27-8.83,33.79-18.27,9.61-7.2,12.18-11.92,8.23-14.67-2.32-1.63-4.29-1.63-8.66-.09Z"/>
    <path class="cls-1" d="m382.74,829.98c-2.57,1.72-11.06,6.95-18.87,11.58-18.53,11.15-34.82,21.79-46.06,30.19-5.06,3.69-11.06,7.72-13.47,9.01s-8.06,5.15-12.61,8.66-13.21,10.04-19.3,14.41c-41.51,29.93-44.09,31.99-44.09,34.82,0,4.37,5.06,7.03,9.95,5.32,4.72-1.72,14.15-7.72,19.98-12.69,17.33-15.1,37.14-29.08,78.82-55.58,50.26-31.99,62.78-40.66,62.78-43.4,0-.69-.94-2.23-2.14-3.35-3.26-3.35-9.01-2.92-15.01,1.03Z"/>
    <path class="cls-1" d="m777.29,818.4c-3.69,3.95-1.97,8.06,8.23,19.98,6.69,7.81,24.79,30.62,33.54,42.46,1.97,2.57,7.98,11.92,13.38,20.76,9.43,15.35,18.44,27.62,36.8,49.92,4.72,5.66,11.06,13.98,14.15,18.44,6.95,9.86,10.12,13.55,13.21,15.1,2.66,1.46,4.72.94,5.92-1.37,2.57-4.63.6-7.98-23.5-40.06-21.27-28.39-29.08-39.45-38.68-55.15-3.6-5.83-8.92-13.9-11.84-17.93-11.75-16.38-33.11-43.66-38-48.72-4.55-4.55-5.75-5.32-8.41-5.32-1.97,0-3.6.6-4.8,1.89Z"/>
    <path class="cls-1" d="m742.73,860.09c-1.97,2.14-1.8,6.78.34,10.81,3.95,7.38,28.48,38.6,43.23,54.98,3.86,4.2,10.29,11.75,14.32,16.73,10.12,12.44,46.32,47.6,55.07,53.52,4.12,2.74,6.52,2.83,9.43.09,2.4-2.23,2.74-4.2,1.12-6.95-.6-.94-8.32-8.83-17.24-17.58-16.04-15.7-42.2-43.14-58.24-61.16-8.49-9.52-24.79-30.62-33.11-42.71-2.49-3.6-5.4-7.2-6.52-7.89-2.74-1.8-6.69-1.72-8.41.17Z"/>
    <path class="cls-1" d="m535.16,782.89c-7.29,4.89-23.59,35.08-23.93,44.43-.17,3.86,1.46,5.49,5.23,5.49,4.8,0,7.55-3.52,15.27-19.73,3.77-7.81,8.49-16.64,10.46-19.73,2.83-4.29,3.52-6.18,3.35-8.58-.26-2.92-.34-3-4.12-3.26-2.66-.17-4.63.26-6.26,1.37Z"/>
    <path class="cls-1" d="m519.55,904.51c-1.89,1.97-3.26,5.49-6.78,18.01-1.63,6.09-7.29,23.76-12.52,39.37-13.81,41.26-18.01,56.52-18.01,65.87,0,3.77.34,4.97,2.06,6.52,1.8,1.72,2.32,1.8,3.86.77,3-1.8,6.43-10.21,11.49-28.13,2.66-9.26,8.66-29.16,13.29-44.17,13.47-43.14,15.1-49.83,13.72-54.89-1.12-4.29-4.55-5.92-7.12-3.35Z"/>
    <path class="cls-1" d="m602.06,800.04c-1.8,1.97-2.57,4.12-6.18,17.84-12.87,49.15-17.15,67.24-21.53,91.86-5.06,28.73-5.66,35.08-6.09,66.56-.69,48.38,2.66,90.75,7.89,100.95,2.14,4.12,6.18,4.63,9.61,1.2,2.06-2.06,2.14-2.49,1.72-9.61-.26-4.12-1.03-11.75-1.8-16.98-.69-5.23-1.72-19.04-2.23-30.62-.51-11.58-1.29-23.16-1.8-25.65-1.12-5.92-1.12-14.67,0-19.81.51-2.23,1.37-10.98,1.8-19.3.51-8.32,1.63-20.59,2.57-27.19s2.06-15.7,2.57-20.16c.94-8.32,8.58-44.34,16.81-79.08,4.63-19.56,5.66-28.48,3.6-30.53-1.54-1.54-5.4-1.29-6.95.51Z"/>
    <path class="cls-1" d="m617.84,888.22c-.94,1.2-1.97,4.2-2.23,6.78-.6,4.55-.09,41.34.94,68.19.43,11.92-.77,32.16-2.83,48.63-.43,3.35-.17,3.95,2.57,6.69,3.52,3.52,5.92,3.77,8.75.94,4.2-4.2,6.26-16.73,6.6-40.4.26-15.87-.86-78.05-1.54-83.37-.34-2.57-1.29-4.55-3.26-6.69-3.52-3.69-6.52-3.95-9.01-.77Z"/>
    <path class="cls-1" d="m617.84,1034.89c-2.92,3.69-3.69,7.81-4.12,20.93-.51,14.41.43,18.36,4.55,19.38,3.17.77,6.52-1.12,7.38-4.37,1.12-4.29,2.66-24.19,2.23-29.33-.34-3.95-.86-5.23-2.74-6.86-3-2.57-5.15-2.49-7.29.26Z"/>
    <path class="cls-1" d="m310.18,941.91c-3,2.23-19.21,16.38-29.93,25.99-4.2,3.77-10.64,9.35-14.15,12.35-7.55,6.35-9.61,8.83-9.61,11.75,0,6,7.38,6.26,15.1.51,6.26-4.72,45.72-43.57,46.4-45.63.69-2.23-1.8-6.86-3.77-6.86-.86,0-2.66.86-4.03,1.89Z"/>
  </g>
</svg>