<svg xmlns="http://www.w3.org/2000/svg" width="351.41" height="258.381" viewBox="0 0 351.41 258.381">
  <g>
    <path d="M198.975,45.707l-.008.072c-.01.094-.023.187-.035.28l.274-.269Z"/>
    <path d="M249.093,104.7l.356-.007-.345-.011A.058.058,0,0,1,249.093,104.7Z"/>
    <path d="M125.988,183.46a107.118,107.118,0,0,0,10.328-9.733,29.411,29.411,0,0,0,7.214-17.379c-2.983,3.7-5.08,8.107-7.642,12.126-2.168,3.7-4.334,7.5-7.729,10.226a41.63,41.63,0,0,1-11.825,6.239c-3.576.987-7.131,2.072-10.758,2.844a56.185,56.185,0,0,1-9.406.862c-1.314-.017-2.623.136-3.935.073a30.8,30.8,0,0,1-7.187-1.839c-3.672-1.258-7.593-1.529-11.252-2.845a48.55,48.55,0,0,1-4.95-2.1c-1.855-.887-4.116-2.382-6.261-1.634-.336.134-.677.268-1.018.4a3.946,3.946,0,0,0-.661.014c-.629.034-1.431.441-2.119.491a35.907,35.907,0,0,0-5.057.205c-2.564.774-5.139-.469-7.56-1.224a14.558,14.558,0,0,1-4.634-2.617c-1.381-.879-3-1.761-4.471-2.8,1.427-.516,2.85-1.04,4.26-1.589q-2.276.669-4.559,1.371a13.346,13.346,0,0,1-2.242-2,14.263,14.263,0,0,1-2.2-3.353c1.776-.491,3.549-.987,5.321-1.469q-2.76.483-5.519,1.054c-.422-.918-.786-1.866-1.121-2.82-.185-.488-.364-1-.539-1.509,2-.24,4-.429,6.013-.554a11.908,11.908,0,0,1,1.475.063,9.668,9.668,0,0,0-1.7-.12c-1.967.015-3.93.136-5.89.316q-.255-.768-.484-1.562a43.112,43.112,0,0,1-.455-11.124,32.171,32.171,0,0,1,1.33-5.579c.949-2.42,2.3-4.655,3.374-7.02,2.08-4.356,3.836-8.887,6.649-12.843a39.19,39.19,0,0,0,6.161-12.533c1.515-5.951,1.924-12,3.175-18.029,2.121-8.243,7.9-15.062,14.133-20.623A61.652,61.652,0,0,1,77.741,67.4c.884-.328,1.777-.628,2.681-.883,1.442-.356,3.176-.515,3.745-2.141-2.3-2.133-5.276-.942-7.893-.167a27.758,27.758,0,0,0-6.047,2.7,26.954,26.954,0,0,1-.29-3.722c-.151-2.766-.972-5.429-1.418-8.151-.731-6.18-1.205-12.51-2.858-18.549-.841-3.364-1.887-6.671-2.562-10.075-.717-3.707-1.207-7.459-1.76-11.191a55.538,55.538,0,0,1-.622-6.307,6.349,6.349,0,0,1,.758-3.6c1.7-2.377,4.841-2.989,7.6-2.848,8.337.562,16.057,11.238,19.615,18.132,4.225,8.77,9.087,22.451,8.014,32.333a62.352,62.352,0,0,0-.539,7.473,19.975,19.975,0,0,0,.531,3.312,12.193,12.193,0,0,0-6.02,2.621c-.43.407-.9.958-.661,1.585.089.254.244.582.536.629a.387.387,0,0,0,.1.022.7.7,0,0,0,.49-.193,4.743,4.743,0,0,1,1.172-.612c3.8-1.161,7.849-2.509,11.842-1.649a.453.453,0,0,0,.456-.385,1.81,1.81,0,0,0-.144-.974,1.486,1.486,0,0,1,.239.029c.156-1.081.322-2.161.543-3.229a37.674,37.674,0,0,1,2.319-6.15c.98-2.243,1.688-4.595,2.638-6.85.886-2.007,2.054-3.877,3.063-5.824,3.59-6.259,5.922-13.564,11.553-18.372,2.511-2.473,5.29-4.643,7.968-6.928A37.762,37.762,0,0,1,145.256,9.98c4.433-1.411,9.851-3.419,14.128-.626.765.434,1.17,1.432,2.027,1.663,2.4,2.685,2.5,6.4,2.572,9.81.043,5.365-1.992,10.5-4.146,15.33-2.378,5.1-6.851,8.707-9.594,13.567-2.2,4.068-4.461,8.1-6.53,12.242-1.454,2.69-2.694,5.519-4.4,8.065a25.958,25.958,0,0,0-2.379,6.733,14.886,14.886,0,0,0,3.6-4.142c.751-1.625,1.407-3.321,2.264-4.908a93.366,93.366,0,0,1,6.744-10.649A90.683,90.683,0,0,0,155.511,49c2.132-3.987,4.228-7.991,6.364-11.978,3.088-5.738,5.237-13.02,3.913-19.525a17.859,17.859,0,0,0-3.694-7.2,4.042,4.042,0,0,0-.984-1.777c-6.166-6.481-16.342-2.659-22.85,1.388-4.368,2.79-8.907,5.552-12.443,9.394a49.368,49.368,0,0,0-5.349,7.322c-2.409,3.65-5.055,7.15-7.226,10.956-2.4,4.465-4.324,9.183-6.364,13.819-1.128,3.008-1.493,6.221-2.234,9.334-.326,1.056-.615,2.125-.871,3.2a1.3,1.3,0,0,0-.492-.2,16.1,16.1,0,0,0-5.293-.193c-.25.024-.5.058-.762.094a6.026,6.026,0,0,0,.648-1.331c1.031-4.232.5-8.693.479-13.011.145-11.6-3.487-21.868-9.261-31.79C83.791,7.829,78.913,3.073,68,.343c-10.049-2.37-9.838,8.07-8.6,14.963,1.037,5.961,3.21,11.65,4.152,17.633,1.239,7.282,2.814,14.505,4.134,21.769A85.1,85.1,0,0,0,69,65.265c.04.749.1,1.514.2,2.271-2.651,1.623-5.188,3.472-7.835,5.08C53.808,77.177,51.194,85.1,49.027,93.151c-1.5,4.712-2.715,9.509-3.879,14.316-.713,3.041-1.244,6.146-2.238,9.114a57.443,57.443,0,0,1-6.048,11.971c-2.638,4.145-6.178,7.873-8.222,12.383a24.49,24.49,0,0,0-1.5,8.1,49.99,49.99,0,0,0,.3,15.441c-2.128.25-4.251.544-6.368.834C14.022,166.7,7.01,168.334,0,169.926c7.647-1.581,15.382-3.182,23.143-4.317,1.455-.288,2.917-.529,4.382-.749a30.888,30.888,0,0,0,1.34,4.658c-4.287.976-8.547,2.106-12.722,3.471a130.459,130.459,0,0,0,12.932-2.9,22.8,22.8,0,0,0,3.385,5.827c-3.858,1.242-7.7,2.557-11.478,3.99,3.939-1.1,7.879-2.317,11.786-3.634.28.33.55.666.852.98a18.443,18.443,0,0,0,7.271,3.963,32.578,32.578,0,0,0,5.521,2.31,41.672,41.672,0,0,1,4.694,1.5,9.453,9.453,0,0,0,1.4.275,5.03,5.03,0,0,0,2.149-.186c.048-.019.1-.036.145-.055,2.7.1,5.324-.753,7.933-1.393,3.687-.759,7.2.971,10.69,1.907,6.955,1.95,13.748,4.563,20.93,5.727.115.015.231.028.346.041,3.569.392,7.149-.473,10.669-.976,2.822-.5,5.7-.513,8.475-1.286A38.22,38.22,0,0,0,125.988,183.46Z"/>
    <path d="M60.236,161.585c-.8.223-.691,2.2-.682,2.9a26.774,26.774,0,0,0,1.5,9.188s0,.007.006.007c.293-3.679-.638-7.426.056-11.05A1.178,1.178,0,0,0,60.236,161.585Z"/>
    <path d="M136.628,40.089a86.1,86.1,0,0,1,8.02-11.386,69.347,69.347,0,0,1,7.77-7.234,35.79,35.79,0,0,1,9.776-5.607.981.981,0,0,0,.824-.8,2.475,2.475,0,0,0-1.914-2.771,21.508,21.508,0,0,0-5.831,2.484c-8.593,5.015-12.961,14.358-18.742,22.055-5.256,6.316-8.426,14.1-10.135,22.123-.592,2.464-1.484,4.846-2.015,7.326a58.943,58.943,0,0,0-.694,7.689,18.343,18.343,0,0,0,0,5.869,1.243,1.243,0,0,0,.444,1.019.128.128,0,0,0,.051.019c.067.007.119-.057.166-.125,0-.024-.045-.033-.065-.049a13.59,13.59,0,0,1,.365-2.658c.186-1.47.112-2.962.3-4.429a81.157,81.157,0,0,0,1.617-10.252c.709-4.575,3-8.714,4.995-12.842C133.22,47.033,135.258,43.694,136.628,40.089Z"/>
    <path d="M149.049,89.722a20.426,20.426,0,0,0-2.891-4.414,30.993,30.993,0,0,0-4.739-5.257c.03-.093.1-.175-.009-.241-.446-.507-.82-.213-.5.35.237.4.615.908.874,1.353,1.067,1.671,2.692,2.885,3.721,4.594,1.557,2.756,3.117,5.435,4.449,8.328,1.429,3.479,2.536,7.224,3.95,10.735l.006,0a103.765,103.765,0,0,0-2.978-10.421A35.442,35.442,0,0,0,149.049,89.722Z"/>
    <path d="M302.262,224.592c2.987-3.955,4.362-8.864,5.388-13.646,1.487-6.733,2.291-13.574,3.1-20.412.8-6.8,1.63-13.684,1.025-20.521-.539-6-2.261-11.819-3.919-17.59-1.707-5.893-2.958-11.563-5.105-17.513a110.55,110.55,0,0,0-4.676-10.434c-4-8.439-9.942-15.726-16.511-22.293-6.232-6.539-12.843-12.845-20.691-17.422-5.633-3.354-11.264-6.812-17.408-9.168a77.052,77.052,0,0,0-7.588-2.488c-4.185-1.06-8.174-2.76-12.283-4.04a64.641,64.641,0,0,0-15.714-2.421c-3.048-.274-6.1-.61-9.167-.633a53.647,53.647,0,0,0-11.884,1.582c-4.353.751-8.838.9-13.034,2.443-5.058,1.775-9.547,4.723-14.179,7.343a21.365,21.365,0,0,0-7.365,4.664c-1.254.967-2.782,1.67-3.6,3.115-.242.339-.682.44-.921.772a.46.46,0,0,0-.007.457c.062.159.289.479.5.372.212-.2.376-.456.592-.663a5.39,5.39,0,0,1,1.006-.515,6.87,6.87,0,0,0,2.138-1.47,13.92,13.92,0,0,1,3.064-1.761,51.969,51.969,0,0,0,5.265-3.789c2.225-1.5,4.842-2.219,7.316-3.194,2.43-.983,4.851-1.853,7.323-2.78,5.213-1.878,10.589-3.95,16.227-3.45,8.043.579,16.174-.577,24.088,1.256,7.486,1.544,15.324,2,22.315,5.367,2.871,1.375,5.73,2.772,8.551,4.243,4.332,2.181,8.846,4.027,12.959,6.611a148.439,148.439,0,0,1,15.885,12.191c2.979,2.608,6.258,4.878,8.9,7.847a43.465,43.465,0,0,1,4.3,6.135,186.054,186.054,0,0,1,9.717,16.57,140.234,140.234,0,0,1,6.787,19.244,104.436,104.436,0,0,1,1.95,11.443c1.175,10.521,3.325,21.1,1.8,31.709-1.759,10.715-6.432,20.654-10.461,30.658a54.169,54.169,0,0,0-4.408,10.04,13.1,13.1,0,0,0,5.842-4.012C300.336,227.151,301.3,225.875,302.262,224.592Z"/>
    <path d="M103.8,244.354a1.115,1.115,0,0,0-1-.164c-1.45.355-2.912.678-4.339,1.124a23.121,23.121,0,0,1-8.076.74c-10.532-.109-20.522-4.08-21.14-16a17.685,17.685,0,0,1,1.32-6.511c.9-2.028,1.439-4.674,2.887-6.526a.5.5,0,0,0,.317-.2c.045-.052.089-.1.132-.157.073.215.231.221.215-.031a.626.626,0,0,0,.122-.23,32.546,32.546,0,0,0,11.038,7.129,36.778,36.778,0,0,0,4.153,1.362c-.729-.4-1.53-.783-2.279-1.2-4.466-2.314-8.2-5.8-11.909-9.171-4.573-4.028-9.31-8.01-12.924-13.028a56.564,56.564,0,0,1-4.083-6.58c-.79-1.425-1.714-2.786-2.387-4.271-.447-1.421-.979-2.824-1.41-4.245.054-.287-.053-.6.073-.866.017-.035.07-.071.061-.11a.52.52,0,0,0-.315-.18.411.411,0,0,0-.434.485,10.22,10.22,0,0,0,.321,2.9,44.89,44.89,0,0,0,3.1,7.234c2.409,3.774,5.3,7.214,8.052,10.739a76.213,76.213,0,0,0,6.154,7q.826.888,1.69,1.742c-.22.145-.446.3-.474.573-.343.393-.7.782-1.055,1.165a8.645,8.645,0,0,0-2.852,4.324c-1.6,5.529-2.568,11.912.657,17.052a14.7,14.7,0,0,0,5.871,5.694c1.8.866,3.712,1.549,5.584,2.283a54.442,54.442,0,0,0,8.453,2.575q.8.132,1.6.22a34.054,34.054,0,0,0,12.758-1.1c.636-.141,1.552-.221,1.522-1.074A3.27,3.27,0,0,0,103.8,244.354Z"/>
    <path d="M175.88,244.126c-7.125,5.4-15.415,9.764-24.43,10.592-7.478.106-14.79-2.3-21.8-4.709-3.188-1.214-6.476-2.555-9.084-4.819-1.736-1.587-3.159-3.48-4.84-5.124-.469-.58-.66-1.381-1.272-1.838-.031-.045-.021-.088-.024-.143a.038.038,0,0,0,0-.024.129.129,0,0,0,0-.024.211.211,0,0,1,.137-.121s0-.012,0-.012a.223.223,0,0,0-.331.224c-.263.928.594,1.7,1.015,2.458,1.523,3.042,4.388,4.929,6.99,6.966a37.591,37.591,0,0,0,20.168,8.555q.651.07,1.307.122c6.267.538,12.63,1.027,18.883.151a25.834,25.834,0,0,0,10.919-4.706,44.72,44.72,0,0,0,8.123-7.422,9.183,9.183,0,0,0,1.564-6.128C180.068,239.1,178.547,242.381,175.88,244.126Z"/>
    <path d="M278.445,243.15c-2.61,1.016-5.286,1.87-7.885,2.92a57.82,57.82,0,0,1-7.274,2.752c-8.4,2.04-17.045,2.607-25.649,3.084-6.514.368-13.247,1.7-19.846,2.235-5.985.365-12.179-.2-18.183-.428-2.765-.174-6.868-.914-6.636-4.481a18.717,18.717,0,0,1,3.493-9.415,25.542,25.542,0,0,1,13.549-10.223c3.146-.642,6.371-.243,9.548-.109,4.1.1,8.185-.55,12.285-.14a10.448,10.448,0,0,0,3.138-.2,4.76,4.76,0,0,1,2.034-.179c.464.181.855-.15,1.256-.335a5.6,5.6,0,0,0-1.268-.639,27.8,27.8,0,0,1-3.487-.62c-2.39-.358-4.826.074-7.232-.188-.826-.076-1.653-.178-2.481-.28a28.529,28.529,0,0,0-6.99-.281,31.088,31.088,0,0,0-5.152.784,72.189,72.189,0,0,0-9.022,2.692,20.438,20.438,0,0,0-8.472,6.914c-6.752,10.906-2.293,19.653,10.346,21.091q.394.057.789.1a59.87,59.87,0,0,0,11.043-.265c7.817-.4,15.84-.555,23.6-1.877,6.285-1.065,12.435-2.88,18.771-3.7,2.229-.336,4.455-.7,6.7-.9a21.125,21.125,0,0,0,5.718-.557,48.731,48.731,0,0,0,15.655-7.233c2.22-1.631,4.619-3.049,6.477-5.112a10.9,10.9,0,0,0,1.908-4.432,10.141,10.141,0,0,0-6.276,2.9A37,37,0,0,1,278.445,243.15Z"/>
    <path d="M350.44,178.482c-1.984-5.805-6.758-10.429-12.989-11.115a1.386,1.386,0,0,1-.854-.917c-.522-1.517-.787-3.111-1.266-4.643a37.818,37.818,0,0,0-3.424-7.962,28.094,28.094,0,0,0-10.516-10.269,18.346,18.346,0,0,0-8.1-3.59,19.615,19.615,0,0,0-3.615-.236,25.889,25.889,0,0,1-2.772-.109,3.391,3.391,0,0,0-1.982-.053c-.206.208-.047.629.069.837.1.19.3.456.535.495a7.928,7.928,0,0,0,1.582.069,7.452,7.452,0,0,1,1.649.08c5.406,1.132,11.159,2.56,15.139,6.639,4.22,4.117,8.722,8.695,10.318,14.572.744,2.592.6,5.776,2.876,7.625,1.777,1.312,4.04,1.671,5.959,2.718,5.185,2.81,7.488,8.4,6.522,14.117-1.017,4.876-3.411,9.31-5.616,13.723a11.578,11.578,0,0,0-.248,4.511,19.4,19.4,0,0,1-.584,6.683c-2.134,7.009-8.929,12.506-15.029,16.129-4.424,2.6-9.429,3.784-14.461,4.527a32.558,32.558,0,0,1-7.644,1.254,38.409,38.409,0,0,1-6.826-.034,11.59,11.59,0,0,0,5.326,3.822,7.969,7.969,0,0,0,1.776.415c3.556.391,5.911-2.091,9.339-3.087,1.249-.3,2.535-.289,3.8-.48a49.531,49.531,0,0,0,8.669-2.35,29.365,29.365,0,0,0,11.2-6.057c4.865-4.287,6.935-10.729,7.632-17,.42-2.43-.24-5,.734-7.32a36.936,36.936,0,0,0,3.189-8.92A32.37,32.37,0,0,0,350.44,178.482Z"/>
    <path d="M103.463,127.121a5.755,5.755,0,0,0,3.442,4.887,6.46,6.46,0,0,0,1.434.319c2.143.236,4.373-.47,6.5-.727a27.9,27.9,0,0,0,4.876-1.156,1.591,1.591,0,0,0,.308-.115,13.792,13.792,0,0,0,2.568-1.259c2.153-1.385,4.5-3.077,4.882-5.8.933-7.095-5.712-9.475-11.638-8.594-4.271-1.132-8.376,1.748-10.249,5.46C104.44,122.285,103.212,124.617,103.463,127.121Zm5.737-3.744c1.586-1.582,4.447-3.768,6.885-3.5a3.418,3.418,0,0,1,.712.156c1.18.876-.462,3.654-1.059,4.655-1.041,1.642-2.559,3.177-4.6,3.317C107.325,128.288,107.679,125.95,109.2,123.377Zm10.066-4.858a2.638,2.638,0,0,1,.851-.058c1.335.147,1.636,1.55.431,2.669a5.6,5.6,0,0,1-1.444.662C119.2,120.687,117.8,119.137,119.266,118.519Z"/>
    <path d="M51.276,185.092l-.17-.065-.031-.008Z"/>
    <path d="M163.363,80.422a42.052,42.052,0,0,0-5.613,3.1c-1.841.968-3.068,2.618-4.51,4.038-.419.367-1.1.713-.963,1.373.017.048.035.125.088.137a.494.494,0,0,0,.082.016.737.737,0,0,0,.6-.3,9.621,9.621,0,0,1,2.811-2.138c1.276-.813,2.436-1.8,3.714-2.6,2.051-1.159,4.31-1.905,6.4-3a48.016,48.016,0,0,1,8.248-3.184c-.6.088-1.277.282-1.905.413C169.349,79.058,166.252,79.36,163.363,80.422Z"/>
    <path d="M169.014,84.221c-1.958.647-4.047,1.044-5.791,2.195-2.039,1.462-4.434,2.444-5.989,4.492a.967.967,0,0,0-.461.867.032.032,0,0,0,.025.022.016.016,0,0,0,.018-.011c.462-.079.7-.52,1.1-.715a39.989,39.989,0,0,0,4.116-2.591c2-.979,4.015-1.938,5.925-3.1,3.477-1.593,7.25-2.492,10.885-3.661-.59.045-1.252.179-1.867.269A42.528,42.528,0,0,0,169.014,84.221Z"/>
    <path d="M208.134,75.576c-5.45-.68-10.907-1.36-16.38-.565-1.809.2-3.689.032-5.485.354a31.02,31.02,0,0,0-6.144,2.181s0,.011,0,.012a30.489,30.489,0,0,1,5.917-.833c2.258-.218,4.429-1.062,6.723-.987,7.027.3,14.063.121,21.089.5.007,0,0-.013,0-.014C211.949,76.053,210.043,75.814,208.134,75.576Z"/>
    <path d="M207.729,80.774a51.934,51.934,0,0,0-12.293-1.2c-1.815.11-3.526.789-5.316,1.015-.258.106-1,.473-.74.81a.145.145,0,0,0,.084.059.061.061,0,0,0,.019,0,6.016,6.016,0,0,0,1.32-.073c2.519-.482,5.556-.121,8.212-.412,3.717-.15,7.432.351,11.148.487A22.019,22.019,0,0,0,207.729,80.774Z"/>
    <path d="M160.69,133.192a3.542,3.542,0,0,0-.637-.184,31.656,31.656,0,0,0,7,1.862c3.594.144,7.213.045,10.8-.158a128.976,128.976,0,0,0,13.642-2.364c-3.1.395-6.27.849-9.41,1.133-3.913.291-7.822.955-11.755.889C167.108,134.04,163.809,134.194,160.69,133.192Z"/>
    <path d="M167.9,140.206a30.841,30.841,0,0,0,6.327-.107,56.852,56.852,0,0,0,12.5-1.936c.007,0,0-.014,0-.014a109.428,109.428,0,0,1-12.8,1.177c-2.176-.028-4.334-.338-6.516-.336-2.2.114-4.71.016-6.757-.068,2.138.382,4.277.825,6.429,1.174Q167.486,140.161,167.9,140.206Z"/>
    <path d="M158.828,146.168c-.041,0-.022.042-.013.06a5.889,5.889,0,0,0,1.422.958A21.556,21.556,0,0,0,166.285,149c4.929.488,9.89-.3,14.793-.81a125.312,125.312,0,0,1-14.194-.319c-.692-.094-1.417-.145-2.149-.2-2.092-.147-4.25-.3-5.92-1.488C158.825,146.179,158.849,146.179,158.828,146.168Z"/>
    <path d="M203.3,112.332c-.219.033-.433.08-.65.126.239.031.548-.023.815-.009,6.038-.039,11.936,1.433,17.753,2.9,4.578,1.422,8.952,3.464,13.453,5.106a138.127,138.127,0,0,0-14.692-6.052,39.524,39.524,0,0,0-9.584-2.22A43.783,43.783,0,0,0,203.3,112.332Z"/>
    <path d="M214.105,108.355c.186.029.391.045.6.059.192.015.386.03.573.059,4.838.575,9.334,2.648,13.834,4.418,4.3,1.714,8.653,3.362,12.525,5.935a67.222,67.222,0,0,0-12.007-6.3,64.829,64.829,0,0,0-12.947-3.926A21.812,21.812,0,0,0,214.105,108.355Z"/>
    <path d="M232.435,108.509a62.41,62.41,0,0,1,12.421,6.067,36.453,36.453,0,0,0-12.155-7.04,19.457,19.457,0,0,0-3.515-.86c-1.4-.192-2.874-.746-4.283-.425,0,0,0,.013,0,.011.055-.014.106-.023.162-.032l0,0C227.677,106.283,230.06,107.552,232.435,108.509Z"/>
    <path d="M260.913,96.163c-1.567-.578-3.482-1.236-5.059-.394-.013.062.046.066.094.052,0,0,0,0,0-.009a24.345,24.345,0,0,1,6.634,2.139,35.282,35.282,0,0,1,5.453,4.072c5.06,4.548,8.634,10.468,12.564,15.962l0,0a91.8,91.8,0,0,0-10.4-15.431A19,19,0,0,0,260.913,96.163Z"/>
    <path d="M279.859,128.971c-2.317-5.461-4.033-11.369-7.56-16.206-1.97-2.745-5-4.444-7.924-5.934a39.744,39.744,0,0,1,3.973,2.818,40.885,40.885,0,0,1,4.955,5.961c2.725,4.154,4.5,8.848,6.55,13.356Z"/>
    <path d="M264.362,106.824l.013.007-.014-.01Z"/>
    <polygon points="264.358 106.819 264.361 106.821 264.359 106.815 264.358 106.819"/>
    <path d="M277.512,133.683c1.316,2.9,2.871,5.671,4.339,8.492l.006,0a52.28,52.28,0,0,0-3.589-8.634,26.482,26.482,0,0,0-5.552-6.332A20.33,20.33,0,0,1,277.512,133.683Z"/>
    <path d="M58.586,90.8c2.878-5.232,7.086-9.744,10.85-14.361-1,.823-2.008,1.8-3,2.689a40.439,40.439,0,0,0-5.9,5.985,59.576,59.576,0,0,0-3.523,5.39,19.328,19.328,0,0,0-2.3,10.922.046.046,0,0,0,.027.027s0,0-.01-.018a11.889,11.889,0,0,1,.94-3.76C56.623,95.391,57.471,93.026,58.586,90.8Z"/>
    <path d="M76.8,74.975a94.553,94.553,0,0,0-9.819,7.418,23.622,23.622,0,0,0-5.24,8.144s0,.007.008.008c1.315-2.724,3.612-4.872,5.727-6.99a82.484,82.484,0,0,1,9.332-8.568S76.8,74.973,76.8,74.975Z"/>
    <path d="M146.876,109.215a.01.01,0,0,0,.008.007,26.472,26.472,0,0,0-1.565-11.339,22.272,22.272,0,0,0-4.937-8.254,4.646,4.646,0,0,0-1.273-.818,4.7,4.7,0,0,1,.628.494c2.04,1.8,2.876,4.472,3.985,6.877a47.186,47.186,0,0,1,2.023,5.237A51.467,51.467,0,0,1,146.876,109.215Z"/>
    <path d="M139.618,97.764a.078.078,0,0,0,.024.005c0-.022-.075-.057-.09,0,2.517,4.864,3.167,10.342,4.09,15.672l.008,0a23.276,23.276,0,0,0-4.068-15.676l0-.006A.074.074,0,0,1,139.618,97.764Z"/>
    <path d="M111.148,195.333l0,0v-.009l0,0-.015,0Z"/>
    <path d="M111.156,195.318h0l.013,0h-.008Z"/>
    <path d="M125.392,192.254a26.034,26.034,0,0,0,5.12-2.795,33.988,33.988,0,0,0,5.364-5.8c.76-.938,1.529-1.87,2.268-2.826-.806.865-1.665,1.827-2.54,2.677a35.571,35.571,0,0,1-15.349,9.076c-2.083.57-3.993,1.625-6.093,2.127-.98.234-2.045.33-2.993.6a30.847,30.847,0,0,0,7.843-.508A46.334,46.334,0,0,0,125.392,192.254Z"/>
    <path d="M125.659,198.009a23.274,23.274,0,0,1-4.19.727h0c.377.061.741.172,1.117.218.113.019.227.034.34.047a13.8,13.8,0,0,0,5.584-1.015c5.3-1.725,9.068-6.112,13.03-9.807,0,0,0-.016-.008-.012a94.852,94.852,0,0,1-10.711,7.238A26.547,26.547,0,0,1,125.659,198.009Z"/>
    <path d="M62.475,190.014a14.182,14.182,0,0,0,1.671,4.014c.984,1.805,2.04,3.572,3.129,5.312,1.994,3.361,5.087,5.775,8.364,7.8a43.671,43.671,0,0,1-10.1-11.363C64.5,193.9,63.116,192.052,62.475,190.014Z"/>
    <path d="M76.992,202.49a26.724,26.724,0,0,1-5.01-5.24,51.684,51.684,0,0,1-3.655-5.083,21.475,21.475,0,0,0,3.258,5.493A16.316,16.316,0,0,0,76.992,202.49Z"/>
    <polygon points="68.327 192.167 68.327 192.165 68.327 192.166 68.327 192.167"/>
    <path d="M68.324,192.152h0l0,.013c.007,0,0-.01,0-.013Z"/>
    <path d="M45.176,165.8a1.247,1.247,0,0,0,.38,1.23.82.82,0,0,0,.462.258.285.285,0,0,0,.313-.179C46.61,166.57,45.745,165.154,45.176,165.8Z"/>
    <path d="M41.34,166.872a.512.512,0,0,0-.514.43,1.732,1.732,0,0,0,.155,1.07,1.834,1.834,0,0,0,1.277,1.2.511.511,0,0,0,.514-.43,1.72,1.72,0,0,0-.155-1.069A1.831,1.831,0,0,0,41.34,166.872Z"/>
    <path d="M72.828,170.04c.958.048.281-1.5-.31-1.6C71.578,168.377,72.248,169.941,72.828,170.04Z"/>
    <path d="M75.12,175.843a.55.55,0,0,0,.556-.462,1.881,1.881,0,0,0-.166-1.154,1.977,1.977,0,0,0-1.377-1.292.548.548,0,0,0-.555.463,1.883,1.883,0,0,0,.166,1.154A1.978,1.978,0,0,0,75.12,175.843Z"/>
    <path d="M127.714,168.963c-10.634-.541-21.254-1.545-31.91-1-3.018.077-6.139-.121-9.086.573-.005,0,0,.011,0,.012h0c5.818-.781,11.8-.11,17.654.136,7.773.295,15.561-.006,23.34.3C127.726,168.978,127.718,168.964,127.714,168.963Z"/>
    <path d="M85.744,173.02c1.239.246,2.552.472,3.819.7,5.7,1.063,11.363,2.331,17.134,2.966q.723.079,1.449.146c.635.067,1.281.143,1.926.216,1.568.179,3.146.36,4.662.485-7.16-1.423-14.324-2.832-21.594-3.56C90.674,173.662,88.224,173.225,85.744,173.02Z"/>
    <path d="M298.951,201.3a63.382,63.382,0,0,1-4.877,11.776l0,.012c2.769-5.154,5.844-10.257,7.466-15.914A48.331,48.331,0,0,0,302.89,186.5a36.777,36.777,0,0,0-1.217-11.34,3.572,3.572,0,0,0-.4-.8c-.032-.03-.077-.022-.063.03a7.207,7.207,0,0,0,.044,2c-.128,4.162.279,8.325.094,12.485A105.385,105.385,0,0,1,298.951,201.3Z"/>
    <path d="M288.2,211.683a.014.014,0,0,0,0,.014l0,0c3.614-5,6.662-10.448,7.788-16.582.634-3.235.353-6.563.262-9.835a23.5,23.5,0,0,0-.358-2.806c.109,1.193.152,2.5.172,3.738a58.289,58.289,0,0,1-1.845,11.981A117.736,117.736,0,0,1,288.2,211.683Z"/>
    <path d="M286.152,207.152a34.418,34.418,0,0,0,2.794-7.3,36.636,36.636,0,0,0,.185-8.06.182.182,0,0,0-.016-.055c0-.006-.01-.007-.006,0s.008.029.01.047c.187,5.255-1.794,10.3-2.975,15.361C286.144,207.145,286.148,207.152,286.152,207.152Z"/>
    <path d="M311.839,149.165c-.046.017-.042.016-.031.052.022.082.432.138.443.141a9.916,9.916,0,0,1,4.2,1.953c6.427,4.461,10.43,11.468,13.4,18.557,0,0,.006,0,.008,0a53.843,53.843,0,0,0-3.786-9.661,31.974,31.974,0,0,0-5.258-6.463,16.461,16.461,0,0,0-4.261-3.359,16.706,16.706,0,0,0-4.747-1.19v-.006S311.862,149.172,311.839,149.165Z"/>
    <path d="M326.633,175.952l.006.007a22.111,22.111,0,0,0-2.717-8.094,23.511,23.511,0,0,0-6.294-6.484C322.054,165.166,324.8,170.454,326.633,175.952Z"/>
    <path d="M341.387,195.137l0,0c1.116-4.62.7-10.99-3.879-13.572-.035-.018-.575-.255-.518-.027.016.07.114.119.17.153,0-.03-.1-.089-.122-.136l.008-.008c1.292.435,1.886,1.841,2.5,2.994a19.949,19.949,0,0,1,1.826,10.589Z"/>
    <path d="M335.946,186.238a31.007,31.007,0,0,1,.535,10.791l.008.01,0,0c1-3.6,1.254-7.733-.6-11.1C335.756,185.884,335.911,186.176,335.946,186.238Z"/>
    <path d="M312.367,223.461a.891.891,0,0,1-.452-.43c.187.867,1.555,1.253,2.368,1.385l.043,0c4.053.446,8.028-1.246,11.207-3.666a45.343,45.343,0,0,0,6.783-6.007A37.51,37.51,0,0,1,329,217.02a100.213,100.213,0,0,1-8.93,4.89C317.725,223.078,315.013,224.459,312.367,223.461Z"/>
    <path d="M318.12,218.915c-.01-.01,0-.044-.016-.039-.011.066.04.091.1.1a.791.791,0,0,0,.179-.01,12.708,12.708,0,0,0,7.729-5.719c-1.773,1.326-3.586,2.6-5.244,4.067a8.06,8.06,0,0,1-2.732,1.616Z"/>
    <path d="M211.38,217.708c2.385-.55,4.854-1.066,7.181-1.69-1.625.342-3.257.654-4.89.956A193.744,193.744,0,0,1,193,219.741c-3.461.4-6.918,1.033-10.419.685-6.087-.595-12.259-.753-18.243-2.088-1.566-.307-3.043-.929-4.575-1.371-1.405-.478-2.893-.591-4.295-1.095a42.839,42.839,0,0,0-4.756-1.768c-.832-.272-1.623-1-2.346-1.276a17.358,17.358,0,0,0,7.365,4.336,25.866,25.866,0,0,0,5.054,1.617c4.36.41,8.591,1.562,12.884,2.354.553.1,1.106.175,1.66.236,4.3.474,8.63-.058,12.948-.177a58.475,58.475,0,0,0,11.789-1.342C203.861,219.24,207.644,218.608,211.38,217.708Z"/>
    <path d="M148.325,212.822l.008.009h0v-.014l-.014,0A.018.018,0,0,1,148.325,212.822Z"/>
    <path d="M148.336,212.8a.038.038,0,0,1,0,.015l.033.012-.029-.026Z"/>
    <path d="M170.368,213.483c.165.023.33.043.5.061a38.316,38.316,0,0,0,4.635.147,84.6,84.6,0,0,0,9.107-.047,181.862,181.862,0,0,0,21.553-3.931,5.572,5.572,0,0,0-.671.1q-11.041,1.8-22.2,2.636a59.148,59.148,0,0,1-8.407.54c-1.744-.194-3.473-.479-5.214-.682a32.256,32.256,0,0,1-8.955-1.852,16.323,16.323,0,0,0,4.5,1.63C166.94,212.507,168.607,213.157,170.368,213.483Z"/>
    <path d="M160.708,210.455l-.036-.02,0,0h0l0,.007Z"/>
    <polygon points="160.672 210.437 160.672 210.437 160.673 210.437 160.672 210.437"/>
    <path d="M78.3,14.8c1.291,1.549,2.589,3.1,3.745,4.751a23.18,23.18,0,0,1,2.4,5.7A90.231,90.231,0,0,0,88,35.528a71.227,71.227,0,0,1,2.959,11.5.013.013,0,0,0,.008.01,64.216,64.216,0,0,0-6.41-24.1,35.737,35.737,0,0,0-9.548-12.9c-1.225-.809-2.276-2.237-3.8-2.4-.191-.06-.446-.09-.536.129-.083.133.159.4.287.278,0-.021-.025-.034-.034-.055C74.332,8.9,76.1,12.308,78.3,14.8Z"/>
    <path d="M80.38,30.221a98.385,98.385,0,0,1,6.551,20.965l.008.01c.2-5.713-1.4-11.206-3.2-16.564a39.9,39.9,0,0,0-3.268-7.723A83.4,83.4,0,0,0,75.3,19.648a.8.8,0,0,1-.12-.194c0,.141.185.362.275.521A43.026,43.026,0,0,1,80.38,30.221Z"/>
    <path d="M129.629,26.085c.012-.084-.086-.254-.216-.239a6.978,6.978,0,0,0-3.66,2.359c-.729.858-1.636,1.541-2.368,2.39A68.892,68.892,0,0,0,115.1,47.671s0,.011,0,.012c1.77-3.836,3.469-7.73,5.543-11.413,1.549-2.242,3.3-4.335,4.951-6.49,1.261-1.136,2.354-2.367,3.555-3.533C129.284,26.179,129.525,25.831,129.629,26.085Z"/>
    <path d="M128.938,31.886a5.676,5.676,0,0,0-1.871,1.56c-4.45,4.625-6.6,10.8-8.643,16.757,0,0,0,.011.008.012a104.829,104.829,0,0,1,6.186-11.543c1.434-2.268,2.543-4.824,4.447-6.741a.082.082,0,0,1,.078.013c.023.011.035.021.029.008A.194.194,0,0,0,128.938,31.886Z"/>
    <path d="M104,71.575h0l.038-.031C104.022,71.554,104.01,71.566,104,71.575Z"/>
    <path d="M132.576,71c.011,0,.027.012.013.015s-.01-.012-.015-.017h0Z"/>
    <path d="M137.969,64.254a16.326,16.326,0,0,0-2.954,2.7c.918-1.324,1.865-2.635,2.661-4.027a75.7,75.7,0,0,0,3.937-8.072c-4.02,4.208-6.62,9.592-8.73,14.993-.111.176-.218.352-.324.53A22.412,22.412,0,0,0,133.96,67c1.853-4.476,4.334-8.653,6.319-13.068a24.2,24.2,0,0,0-5.256,7.356,39.334,39.334,0,0,0-2.382,7.6,37.527,37.527,0,0,1,.527-4.027c1.163-4.3,2.846-8.456,4.177-12.708,0,0,0-.016-.007-.009a36.5,36.5,0,0,0-5.345,12.9c-.39,2.2-.772,4.549,0,6.754.028.068.093.25.155.256.024,0,.047-.019.068-.082-.008-.032-.042.022-.062.026.082-.333.148-.667.207-1,.066-.041.128-.086.192-.129q-.012.1.021.132a.03.03,0,0,1,0-.016l0-.033,0,0c.025-.051.054-.1.079-.151A17.816,17.816,0,0,0,137.969,64.254ZM132.441,70.5c.007.01.014.022.025.023l.006,0-.048.081C132.43,70.568,132.436,70.534,132.441,70.5Z"/>
    <path d="M50.61,136.493A16.963,16.963,0,0,0,47.2,144.94a2.848,2.848,0,0,0-.062,1.62c.328.023.452-.408.5-.682a8.045,8.045,0,0,1,1.008-3.312,41.261,41.261,0,0,1,2.1-4.33c1.164-1.518,2.7-2.71,3.98-4.123,1.3-1.362,2.482-2.845,3.9-4.093a27.965,27.965,0,0,0,7.979-11.332,16.7,16.7,0,0,0,.658-2.058,30.611,30.611,0,0,0-3.329,3.91c-2.172,3.272-3.873,6.987-6.871,9.625-1.164.954-2.527,1.658-3.6,2.731A17.429,17.429,0,0,0,50.61,136.493Z"/>
    <path d="M73.941,154.092c.093,0,.186-.005.279,0a.5.5,0,0,0,.269-.071c1.2-.478.036-2.371-.76-2.805-1.87-.678-4,.129-5.961-.04a12.589,12.589,0,0,0-5.61.107c-2.88.649-5.9,1.488-8.624-.182-1.861-1.1-3.745-2.469-5.95-2.7a.711.711,0,0,0-.769.856,2.559,2.559,0,0,0,.559,1.235c.423.892,1.6,1.434,2.256,2.152,2.725,2.461,4.756,6.1,8.147,7.832a3.9,3.9,0,0,0,1.668.609c1.758.194,3.353-.992,4.769-2.238a30.481,30.481,0,0,1,7.159-4.19c.674-.172,1.347-.34,2.018-.51C73.572,154.114,73.758,154.108,73.941,154.092Z"/>
  </g>
</svg>
